# MagicaVoxel @ Ephtracy

# material
mtllib Construction_Worker.mtl
usemtl palette

# normals
vn -1 0 0
vn 1 0 0
vn 0 0 1
vn 0 0 -1
vn 0 -1 0
vn 0 1 0

# texcoords
vt 0.0175781 0.5
vt 0.162109 0.5
vt 0.177734 0.5
vt 0.306641 0.5
vt 0.341797 0.5
vt 0.634766 0.5
vt 0.720703 0.5
vt 0.966797 0.5
vt 0.986328 0.5
vt 0.990234 0.5

# verts
v -4 4 -0.5
v -4 4 -1.5
v -4 8 0.5
v -4 8 -0.5
v -4 8 -1.5
v -4 9 0.5
v -4 9 -0.5
v -4 14 3.5
v -4 14 -3.5
v -4 16 3.5
v -4 16 -3.5
v -3 9 0.5
v -3 9 -0.5
v -3 10 0.5
v -3 10 -0.5
v -3 12 3.5
v -3 12 1.5
v -3 12 -0.5
v -3 12 -2.5
v -3 13 1.5
v -3 13 0.5
v -3 14 5.5
v -3 14 3.5
v -3 14 0.5
v -3 14 -0.5
v -3 14 -2.5
v -3 14 -3.5
v -3 14 -4.5
v -3 15 5.5
v -3 15 4.5
v -3 16 4.5
v -3 16 3.5
v -3 16 -3.5
v -3 16 -4.5
v -3 17 3.5
v -3 17 -3.5
v -2 0 0.5
v -2 0 -0.5
v -2 4 0.5
v -2 4 -0.5
v -2 4 -1.5
v -2 5 1.5
v -2 5 0.5
v -2 6 1.5
v -2 6 -1.5
v -2 7 1.5
v -2 7 -1.5
v -2 9 1.5
v -2 9 0.5
v -2 9 -0.5
v -2 10 -0.5
v -2 10 -1.5
v -2 11 3.5
v -2 11 -2.5
v -2 12 3.5
v -2 12 1.5
v -2 12 -0.5
v -2 12 -2.5
v -2 12 -3.5
v -2 14 -2.5
v -2 14 -3.5
v -2 17 2.5
v -2 17 -2.5
v -2 18 2.5
v -2 18 -2.5
v -1 4 1.5
v -1 4 0.5
v -1 5 1.5
v -1 5 0.5
v -1 9 1.5
v -1 9 0.5
v -1 10 3.5
v -1 10 1.5
v -1 10 0.5
v -1 10 -0.5
v -1 11 3.5
v -1 11 1.5
v -1 11 0.5
v -1 11 -0.5
v -1 11 -2.5
v -1 11 -3.5
v -1 12 -2.5
v -1 12 -3.5
v 1 0 0.5
v 1 0 -0.5
v 1 4 0.5
v 1 4 -0.5
v 3 4 -0.5
v 3 4 -1.5
v 3 8 0.5
v 3 8 -0.5
v 3 8 -1.5
v 3 9 0.5
v 3 9 -0.5
v -3 4 -0.5
v -3 4 -1.5
v -3 8 0.5
v -3 8 -0.5
v -3 8 -1.5
v -3 9 0.5
v -3 9 -0.5
v -1 0 0.5
v -1 0 -0.5
v -1 4 0.5
v -1 4 -0.5
v 1 4 1.5
v 1 4 0.5
v 1 5 1.5
v 1 5 0.5
v 1 9 1.5
v 1 9 0.5
v 1 10 3.5
v 1 10 1.5
v 1 10 0.5
v 1 10 -0.5
v 1 11 3.5
v 1 11 1.5
v 1 11 0.5
v 1 11 -0.5
v 1 11 -2.5
v 1 11 -3.5
v 1 12 -2.5
v 1 12 -3.5
v 2 0 0.5
v 2 0 -0.5
v 2 4 0.5
v 2 4 -0.5
v 2 4 -1.5
v 2 5 1.5
v 2 5 0.5
v 2 6 1.5
v 2 6 -1.5
v 2 7 1.5
v 2 7 -1.5
v 2 9 1.5
v 2 9 0.5
v 2 9 -0.5
v 2 10 -0.5
v 2 10 -1.5
v 2 11 3.5
v 2 11 -2.5
v 2 12 3.5
v 2 12 1.5
v 2 12 -0.5
v 2 12 -2.5
v 2 12 -3.5
v 2 14 -2.5
v 2 14 -3.5
v 2 17 2.5
v 2 17 -2.5
v 2 18 2.5
v 2 18 -2.5
v 3 9 0.5
v 3 9 -0.5
v 3 10 0.5
v 3 10 -0.5
v 3 12 3.5
v 3 12 1.5
v 3 12 -0.5
v 3 12 -2.5
v 3 13 1.5
v 3 13 0.5
v 3 14 5.5
v 3 14 3.5
v 3 14 0.5
v 3 14 -0.5
v 3 14 -2.5
v 3 14 -3.5
v 3 14 -4.5
v 3 15 5.5
v 3 15 4.5
v 3 16 4.5
v 3 16 3.5
v 3 16 -3.5
v 3 16 -4.5
v 3 17 3.5
v 3 17 -3.5
v 4 4 -0.5
v 4 4 -1.5
v 4 8 0.5
v 4 8 -0.5
v 4 8 -1.5
v 4 9 0.5
v 4 9 -0.5
v 4 14 3.5
v 4 14 -3.5
v 4 16 3.5
v 4 16 -3.5
v -3 14 5.5
v -3 15 5.5
v 3 14 5.5
v 3 15 5.5
v -3 15 4.5
v -3 16 4.5
v -1 15 4.5
v -1 16 4.5
v 1 15 4.5
v 1 16 4.5
v 3 15 4.5
v 3 16 4.5
v -4 14 3.5
v -4 16 3.5
v -3 12 3.5
v -3 14 3.5
v -3 16 3.5
v -3 17 3.5
v -2 11 3.5
v -2 12 3.5
v -2 13 3.5
v -2 14 3.5
v -1 10 3.5
v -1 11 3.5
v -1 13 3.5
v -1 14 3.5
v -1 16 3.5
v -1 17 3.5
v 1 10 3.5
v 1 11 3.5
v 1 13 3.5
v 1 14 3.5
v 1 16 3.5
v 1 17 3.5
v 2 11 3.5
v 2 12 3.5
v 2 13 3.5
v 2 14 3.5
v 3 12 3.5
v 3 14 3.5
v 3 16 3.5
v 3 17 3.5
v 4 14 3.5
v 4 16 3.5
v -2 17 2.5
v -2 18 2.5
v -1 17 2.5
v -1 18 2.5
v 1 17 2.5
v 1 18 2.5
v 2 17 2.5
v 2 18 2.5
v -2 5 1.5
v -2 6 1.5
v -2 7 1.5
v -2 9 1.5
v -1 4 1.5
v -1 5 1.5
v -1 6 1.5
v -1 7 1.5
v -1 9 1.5
v -1 10 1.5
v 1 4 1.5
v 1 5 1.5
v 1 6 1.5
v 1 7 1.5
v 1 9 1.5
v 1 10 1.5
v 2 5 1.5
v 2 6 1.5
v 2 7 1.5
v 2 9 1.5
v -4 8 0.5
v -4 9 0.5
v -3 8 0.5
v -3 9 0.5
v -3 10 0.5
v -2 0 0.5
v -2 4 0.5
v -2 5 0.5
v -2 9 0.5
v -1 0 0.5
v -1 4 0.5
v -1 5 0.5
v -1 9 0.5
v -1 10 0.5
v -1 11 0.5
v 1 0 0.5
v 1 4 0.5
v 1 5 0.5
v 1 9 0.5
v 1 10 0.5
v 1 11 0.5
v 2 0 0.5
v 2 4 0.5
v 2 5 0.5
v 2 9 0.5
v 3 8 0.5
v 3 9 0.5
v 3 10 0.5
v 4 8 0.5
v 4 9 0.5
v -4 4 -0.5
v -4 8 -0.5
v -3 4 -0.5
v -3 8 -0.5
v 3 4 -0.5
v 3 8 -0.5
v 4 4 -0.5
v 4 8 -0.5
v -1 10 1.5
v -1 11 1.5
v 1 10 1.5
v 1 11 1.5
v -4 8 -0.5
v -4 9 -0.5
v -3 8 -0.5
v -3 9 -0.5
v -3 10 -0.5
v -2 0 -0.5
v -2 4 -0.5
v -2 9 -0.5
v -2 10 -0.5
v -1 0 -0.5
v -1 4 -0.5
v -1 10 -0.5
v -1 11 -0.5
v 1 0 -0.5
v 1 4 -0.5
v 1 10 -0.5
v 1 11 -0.5
v 2 0 -0.5
v 2 4 -0.5
v 2 9 -0.5
v 2 10 -0.5
v 3 8 -0.5
v 3 9 -0.5
v 3 10 -0.5
v 4 8 -0.5
v 4 9 -0.5
v -4 4 -1.5
v -4 8 -1.5
v -3 4 -1.5
v -3 8 -1.5
v -2 4 -1.5
v -2 6 -1.5
v -2 7 -1.5
v -2 10 -1.5
v 2 4 -1.5
v 2 6 -1.5
v 2 7 -1.5
v 2 10 -1.5
v 3 4 -1.5
v 3 8 -1.5
v 4 4 -1.5
v 4 8 -1.5
v -3 12 -2.5
v -3 14 -2.5
v -2 11 -2.5
v -2 12 -2.5
v -2 14 -2.5
v -2 17 -2.5
v -2 18 -2.5
v -1 11 -2.5
v -1 12 -2.5
v -1 17 -2.5
v -1 18 -2.5
v 1 11 -2.5
v 1 12 -2.5
v 1 17 -2.5
v 1 18 -2.5
v 2 11 -2.5
v 2 12 -2.5
v 2 14 -2.5
v 2 17 -2.5
v 2 18 -2.5
v 3 12 -2.5
v 3 14 -2.5
v -4 14 -3.5
v -4 16 -3.5
v -3 14 -3.5
v -3 16 -3.5
v -3 17 -3.5
v -2 12 -3.5
v -2 14 -3.5
v -1 11 -3.5
v -1 12 -3.5
v -1 14 -3.5
v -1 16 -3.5
v -1 17 -3.5
v 1 11 -3.5
v 1 12 -3.5
v 1 14 -3.5
v 1 16 -3.5
v 1 17 -3.5
v 2 12 -3.5
v 2 14 -3.5
v 3 14 -3.5
v 3 16 -3.5
v 3 17 -3.5
v 4 14 -3.5
v 4 16 -3.5
v -3 14 -4.5
v -3 16 -4.5
v -1 14 -4.5
v -1 16 -4.5
v 1 14 -4.5
v 1 16 -4.5
v 3 14 -4.5
v 3 16 -4.5
v -2 0 0.5
v -1 0 0.5
v 1 0 0.5
v 2 0 0.5
v -2 0 -0.5
v -1 0 -0.5
v 1 0 -0.5
v 2 0 -0.5
v -1 4 1.5
v 1 4 1.5
v -1 4 0.5
v 1 4 0.5
v -4 4 -0.5
v -3 4 -0.5
v -2 4 -0.5
v -1 4 -0.5
v 1 4 -0.5
v 2 4 -0.5
v 3 4 -0.5
v 4 4 -0.5
v -4 4 -1.5
v -3 4 -1.5
v -2 4 -1.5
v 2 4 -1.5
v 3 4 -1.5
v 4 4 -1.5
v -2 5 1.5
v -1 5 1.5
v 1 5 1.5
v 2 5 1.5
v -2 5 0.5
v -1 5 0.5
v 1 5 0.5
v 2 5 0.5
v -4 8 0.5
v -3 8 0.5
v 3 8 0.5
v 4 8 0.5
v -4 8 -0.5
v -3 8 -0.5
v 3 8 -0.5
v 4 8 -0.5
v -3 9 0.5
v -2 9 0.5
v 2 9 0.5
v 3 9 0.5
v -3 9 -0.5
v -2 9 -0.5
v 2 9 -0.5
v 3 9 -0.5
v -1 10 3.5
v 1 10 3.5
v -1 10 1.5
v 1 10 1.5
v -2 11 3.5
v -1 11 3.5
v 1 11 3.5
v 2 11 3.5
v -1 11 1.5
v 1 11 1.5
v -1 11 0.5
v 1 11 0.5
v -1 11 -0.5
v 1 11 -0.5
v -2 11 -2.5
v -1 11 -2.5
v 1 11 -2.5
v 2 11 -2.5
v -1 11 -3.5
v 1 11 -3.5
v -3 12 3.5
v -2 12 3.5
v 2 12 3.5
v 3 12 3.5
v -3 12 1.5
v -2 12 1.5
v 2 12 1.5
v 3 12 1.5
v -3 12 -0.5
v -2 12 -0.5
v 2 12 -0.5
v 3 12 -0.5
v -3 12 -2.5
v -2 12 -2.5
v -1 12 -2.5
v 1 12 -2.5
v 2 12 -2.5
v 3 12 -2.5
v -2 12 -3.5
v -1 12 -3.5
v 1 12 -3.5
v 2 12 -3.5
v -3 14 5.5
v 3 14 5.5
v -2 14 4.5
v 2 14 4.5
v -4 14 3.5
v -3 14 3.5
v -2 14 3.5
v -1 14 3.5
v 1 14 3.5
v 2 14 3.5
v 3 14 3.5
v 4 14 3.5
v -3 14 0.5
v 3 14 0.5
v -3 14 -0.5
v 3 14 -0.5
v -3 14 -2.5
v -2 14 -2.5
v 2 14 -2.5
v 3 14 -2.5
v -4 14 -3.5
v -3 14 -3.5
v -2 14 -3.5
v -1 14 -3.5
v 1 14 -3.5
v 2 14 -3.5
v 3 14 -3.5
v 4 14 -3.5
v -3 14 -4.5
v -1 14 -4.5
v 1 14 -4.5
v 3 14 -4.5
v -4 8 -0.5
v -3 8 -0.5
v 3 8 -0.5
v 4 8 -0.5
v -4 8 -1.5
v -3 8 -1.5
v 3 8 -1.5
v 4 8 -1.5
v -2 9 1.5
v -1 9 1.5
v 1 9 1.5
v 2 9 1.5
v -4 9 0.5
v -3 9 0.5
v -2 9 0.5
v -1 9 0.5
v 1 9 0.5
v 2 9 0.5
v 3 9 0.5
v 4 9 0.5
v -4 9 -0.5
v -3 9 -0.5
v 3 9 -0.5
v 4 9 -0.5
v -1 10 1.5
v 1 10 1.5
v -3 10 0.5
v -1 10 0.5
v 1 10 0.5
v 3 10 0.5
v -3 10 -0.5
v -2 10 -0.5
v -1 10 -0.5
v 1 10 -0.5
v 2 10 -0.5
v 3 10 -0.5
v -2 10 -1.5
v 2 10 -1.5
v -3 15 5.5
v 3 15 5.5
v -3 15 4.5
v -1 15 4.5
v 1 15 4.5
v 3 15 4.5
v -3 16 4.5
v -1 16 4.5
v 1 16 4.5
v 3 16 4.5
v -4 16 3.5
v -3 16 3.5
v -1 16 3.5
v 1 16 3.5
v 3 16 3.5
v 4 16 3.5
v -4 16 -3.5
v -3 16 -3.5
v -1 16 -3.5
v 1 16 -3.5
v 3 16 -3.5
v 4 16 -3.5
v -3 16 -4.5
v -1 16 -4.5
v 1 16 -4.5
v 3 16 -4.5
v -3 17 3.5
v -1 17 3.5
v 1 17 3.5
v 3 17 3.5
v -2 17 2.5
v -1 17 2.5
v 1 17 2.5
v 2 17 2.5
v -2 17 -2.5
v -1 17 -2.5
v 1 17 -2.5
v 2 17 -2.5
v -3 17 -3.5
v -1 17 -3.5
v 1 17 -3.5
v 3 17 -3.5
v -2 18 2.5
v -1 18 2.5
v 1 18 2.5
v 2 18 2.5
v -2 18 -2.5
v -1 18 -2.5
v 1 18 -2.5
v 2 18 -2.5

# faces
f 4/3/1 2/3/1 1/3/1
f 5/3/1 2/3/1 4/3/1
f 6/3/1 4/3/1 3/3/1
f 7/3/1 4/3/1 6/3/1
f 10/2/1 9/2/1 8/2/1
f 11/2/1 9/2/1 10/2/1
f 14/2/1 13/2/1 12/2/1
f 15/2/1 13/2/1 14/2/1
f 20/5/1 18/5/1 17/5/1
f 20/3/1 17/3/1 16/3/1
f 21/5/1 18/5/1 20/5/1
f 23/3/1 20/3/1 16/3/1
f 23/3/1 21/3/1 20/3/1
f 24/5/1 18/5/1 21/5/1
f 24/3/1 21/3/1 23/3/1
f 25/3/1 19/3/1 18/3/1
f 25/5/1 18/5/1 24/5/1
f 26/3/1 19/3/1 25/3/1
f 29/2/1 23/2/1 22/2/1
f 30/2/1 23/2/1 29/2/1
f 31/2/1 23/2/1 30/2/1
f 32/2/1 23/2/1 31/2/1
f 33/2/1 28/2/1 27/2/1
f 34/2/1 28/2/1 33/2/1
f 35/2/1 33/2/1 32/2/1
f 36/2/1 33/2/1 35/2/1
f 39/6/1 38/6/1 37/6/1
f 40/6/1 38/6/1 39/6/1
f 43/2/1 40/2/1 39/2/1
f 43/2/1 41/2/1 40/2/1
f 44/2/1 43/2/1 42/2/1
f 45/2/1 41/2/1 43/2/1
f 45/2/1 43/2/1 44/2/1
f 46/10/1 45/10/1 44/10/1
f 47/10/1 45/10/1 46/10/1
f 48/2/1 47/2/1 46/2/1
f 49/2/1 47/2/1 48/2/1
f 50/2/1 47/2/1 49/2/1
f 51/2/1 47/2/1 50/2/1
f 52/2/1 47/2/1 51/2/1
f 55/3/1 54/3/1 53/3/1
f 56/3/1 54/3/1 55/3/1
f 57/3/1 54/3/1 56/3/1
f 58/3/1 54/3/1 57/3/1
f 60/3/1 59/3/1 58/3/1
f 61/3/1 59/3/1 60/3/1
f 64/2/1 63/2/1 62/2/1
f 65/2/1 63/2/1 64/2/1
f 68/2/1 67/2/1 66/2/1
f 69/2/1 67/2/1 68/2/1
f 73/2/1 71/2/1 70/2/1
f 74/2/1 71/2/1 73/2/1
f 76/3/1 73/3/1 72/3/1
f 77/3/1 73/3/1 76/3/1
f 78/3/1 75/3/1 74/3/1
f 79/3/1 75/3/1 78/3/1
f 82/3/1 81/3/1 80/3/1
f 83/3/1 81/3/1 82/3/1
f 86/6/1 85/6/1 84/6/1
f 87/6/1 85/6/1 86/6/1
f 91/3/1 89/3/1 88/3/1
f 92/3/1 89/3/1 91/3/1
f 93/3/1 91/3/1 90/3/1
f 94/3/1 91/3/1 93/3/1
f 95/3/2 96/3/2 98/3/2
f 98/3/2 96/3/2 99/3/2
f 97/3/2 98/3/2 100/3/2
f 100/3/2 98/3/2 101/3/2
f 102/6/2 103/6/2 104/6/2
f 104/6/2 103/6/2 105/6/2
f 106/2/2 107/2/2 108/2/2
f 108/2/2 107/2/2 109/2/2
f 110/2/2 111/2/2 113/2/2
f 113/2/2 111/2/2 114/2/2
f 112/3/2 113/3/2 116/3/2
f 116/3/2 113/3/2 117/3/2
f 114/3/2 115/3/2 118/3/2
f 118/3/2 115/3/2 119/3/2
f 120/3/2 121/3/2 122/3/2
f 122/3/2 121/3/2 123/3/2
f 124/6/2 125/6/2 126/6/2
f 126/6/2 125/6/2 127/6/2
f 126/2/2 127/2/2 130/2/2
f 127/2/2 128/2/2 130/2/2
f 129/2/2 130/2/2 131/2/2
f 130/2/2 128/2/2 132/2/2
f 131/2/2 130/2/2 132/2/2
f 131/10/2 132/10/2 133/10/2
f 133/10/2 132/10/2 134/10/2
f 133/2/2 134/2/2 135/2/2
f 135/2/2 134/2/2 136/2/2
f 136/2/2 134/2/2 137/2/2
f 137/2/2 134/2/2 138/2/2
f 138/2/2 134/2/2 139/2/2
f 140/3/2 141/3/2 142/3/2
f 142/3/2 141/3/2 143/3/2
f 143/3/2 141/3/2 144/3/2
f 144/3/2 141/3/2 145/3/2
f 145/3/2 146/3/2 147/3/2
f 147/3/2 146/3/2 148/3/2
f 149/2/2 150/2/2 151/2/2
f 151/2/2 150/2/2 152/2/2
f 153/2/2 154/2/2 155/2/2
f 155/2/2 154/2/2 156/2/2
f 158/5/2 159/5/2 161/5/2
f 157/3/2 158/3/2 161/3/2
f 161/5/2 159/5/2 162/5/2
f 157/3/2 161/3/2 164/3/2
f 161/3/2 162/3/2 164/3/2
f 162/5/2 159/5/2 165/5/2
f 164/3/2 162/3/2 165/3/2
f 159/3/2 160/3/2 166/3/2
f 165/5/2 159/5/2 166/5/2
f 166/3/2 160/3/2 167/3/2
f 163/2/2 164/2/2 170/2/2
f 170/2/2 164/2/2 171/2/2
f 171/2/2 164/2/2 172/2/2
f 172/2/2 164/2/2 173/2/2
f 168/2/2 169/2/2 174/2/2
f 174/2/2 169/2/2 175/2/2
f 173/2/2 174/2/2 176/2/2
f 176/2/2 174/2/2 177/2/2
f 178/3/2 179/3/2 181/3/2
f 181/3/2 179/3/2 182/3/2
f 180/3/2 181/3/2 183/3/2
f 183/3/2 181/3/2 184/3/2
f 185/2/2 186/2/2 187/2/2
f 187/2/2 186/2/2 188/2/2
f 191/2/3 190/2/3 189/2/3
f 192/2/3 190/2/3 191/2/3
f 195/2/3 194/2/3 193/2/3
f 196/2/3 194/2/3 195/2/3
f 197/10/3 196/10/3 195/10/3
f 198/10/3 196/10/3 197/10/3
f 199/2/3 198/2/3 197/2/3
f 200/2/3 198/2/3 199/2/3
f 204/2/3 202/2/3 201/2/3
f 205/2/3 202/2/3 204/2/3
f 208/3/3 204/3/3 203/3/3
f 209/3/3 204/3/3 208/3/3
f 210/3/3 204/3/3 209/3/3
f 212/3/3 208/3/3 207/3/3
f 212/3/3 209/3/3 208/3/3
f 213/9/3 210/9/3 209/9/3
f 213/3/3 209/3/3 212/3/3
f 214/9/3 210/9/3 213/9/3
f 215/2/3 206/2/3 205/2/3
f 216/2/3 206/2/3 215/2/3
f 217/3/3 214/3/3 213/3/3
f 217/3/3 213/3/3 212/3/3
f 217/3/3 212/3/3 211/3/3
f 218/3/3 214/3/3 217/3/3
f 219/3/3 214/3/3 218/3/3
f 220/3/3 214/3/3 219/3/3
f 221/10/3 216/10/3 215/10/3
f 222/10/3 216/10/3 221/10/3
f 223/3/3 219/3/3 218/3/3
f 224/3/3 219/3/3 223/3/3
f 225/9/3 220/9/3 219/9/3
f 225/3/3 219/3/3 224/3/3
f 226/9/3 220/9/3 225/9/3
f 227/3/3 225/3/3 224/3/3
f 227/3/3 226/3/3 225/3/3
f 228/3/3 226/3/3 227/3/3
f 229/2/3 222/2/3 221/2/3
f 230/2/3 222/2/3 229/2/3
f 231/2/3 229/2/3 228/2/3
f 232/2/3 229/2/3 231/2/3
f 235/2/3 234/2/3 233/2/3
f 236/2/3 234/2/3 235/2/3
f 237/10/3 236/10/3 235/10/3
f 238/10/3 236/10/3 237/10/3
f 239/2/3 238/2/3 237/2/3
f 240/2/3 238/2/3 239/2/3
f 246/2/3 242/2/3 241/2/3
f 247/10/3 243/10/3 242/10/3
f 247/2/3 242/2/3 246/2/3
f 248/2/3 244/2/3 243/2/3
f 248/10/3 243/10/3 247/10/3
f 249/2/3 244/2/3 248/2/3
f 251/2/3 247/2/3 246/2/3
f 251/2/3 246/2/3 245/2/3
f 252/2/3 247/2/3 251/2/3
f 253/8/3 248/8/3 247/8/3
f 253/2/3 247/2/3 252/2/3
f 254/2/3 250/2/3 249/2/3
f 254/8/3 248/8/3 253/8/3
f 254/2/3 249/2/3 248/2/3
f 255/2/3 250/2/3 254/2/3
f 256/2/3 250/2/3 255/2/3
f 257/2/3 253/2/3 252/2/3
f 258/10/3 254/10/3 253/10/3
f 258/2/3 253/2/3 257/2/3
f 259/2/3 255/2/3 254/2/3
f 259/10/3 254/10/3 258/10/3
f 260/2/3 255/2/3 259/2/3
f 263/3/3 262/3/3 261/3/3
f 264/3/3 262/3/3 263/3/3
f 269/2/3 265/2/3 264/2/3
f 270/6/3 267/6/3 266/6/3
f 271/2/3 268/2/3 267/2/3
f 271/6/3 267/6/3 270/6/3
f 272/2/3 268/2/3 271/2/3
f 273/2/3 265/2/3 269/2/3
f 274/2/3 265/2/3 273/2/3
f 280/3/3 275/3/3 274/3/3
f 281/3/3 275/3/3 280/3/3
f 282/6/3 277/6/3 276/6/3
f 283/2/3 278/2/3 277/2/3
f 283/6/3 277/6/3 282/6/3
f 284/2/3 278/2/3 283/2/3
f 285/2/3 280/2/3 279/2/3
f 287/2/3 280/2/3 285/2/3
f 288/2/3 280/2/3 287/2/3
f 289/3/3 287/3/3 286/3/3
f 290/3/3 287/3/3 289/3/3
f 293/3/3 292/3/3 291/3/3
f 294/3/3 292/3/3 293/3/3
f 297/3/3 296/3/3 295/3/3
f 298/3/3 296/3/3 297/3/3
f 299/3/4 300/3/4 301/3/4
f 301/3/4 300/3/4 302/3/4
f 303/3/4 304/3/4 305/3/4
f 305/3/4 304/3/4 306/3/4
f 306/2/4 307/2/4 310/2/4
f 310/2/4 307/2/4 311/2/4
f 308/6/4 309/6/4 312/6/4
f 312/6/4 309/6/4 313/6/4
f 314/3/4 315/3/4 318/3/4
f 318/3/4 315/3/4 319/3/4
f 316/6/4 317/6/4 320/6/4
f 320/6/4 317/6/4 321/6/4
f 322/2/4 323/2/4 325/2/4
f 325/2/4 323/2/4 326/2/4
f 324/3/4 325/3/4 327/3/4
f 327/3/4 325/3/4 328/3/4
f 329/3/4 330/3/4 331/3/4
f 331/3/4 330/3/4 332/3/4
f 333/2/4 334/2/4 337/2/4
f 334/10/4 335/10/4 338/10/4
f 337/2/4 334/2/4 338/2/4
f 335/2/4 336/2/4 339/2/4
f 338/10/4 335/10/4 339/10/4
f 339/2/4 336/2/4 340/2/4
f 341/3/4 342/3/4 343/3/4
f 343/3/4 342/3/4 344/3/4
f 345/3/4 346/3/4 348/3/4
f 348/3/4 346/3/4 349/3/4
f 347/3/4 348/3/4 352/3/4
f 352/3/4 348/3/4 353/3/4
f 350/2/4 351/2/4 354/2/4
f 354/2/4 351/2/4 355/2/4
f 354/10/4 355/10/4 358/10/4
f 358/10/4 355/10/4 359/10/4
f 356/3/4 357/3/4 360/3/4
f 360/3/4 357/3/4 361/3/4
f 358/2/4 359/2/4 363/2/4
f 363/2/4 359/2/4 364/2/4
f 361/3/4 362/3/4 365/3/4
f 365/3/4 362/3/4 366/3/4
f 367/2/4 368/2/4 369/2/4
f 369/2/4 368/2/4 370/2/4
f 372/3/4 373/3/4 375/3/4
f 375/3/4 373/3/4 376/3/4
f 370/2/4 371/2/4 377/2/4
f 377/2/4 371/2/4 378/2/4
f 375/3/4 376/3/4 379/3/4
f 374/3/4 375/3/4 379/3/4
f 379/3/4 376/3/4 380/3/4
f 380/3/4 376/3/4 381/3/4
f 377/10/4 378/10/4 382/10/4
f 382/10/4 378/10/4 383/10/4
f 380/3/4 381/3/4 384/3/4
f 384/3/4 381/3/4 385/3/4
f 382/2/4 383/2/4 387/2/4
f 387/2/4 383/2/4 388/2/4
f 386/2/4 387/2/4 389/2/4
f 389/2/4 387/2/4 390/2/4
f 391/2/4 392/2/4 393/2/4
f 393/2/4 392/2/4 394/2/4
f 393/10/4 394/10/4 395/10/4
f 395/10/4 394/10/4 396/10/4
f 395/2/4 396/2/4 397/2/4
f 397/2/4 396/2/4 398/2/4
f 403/6/5 400/6/5 399/6/5
f 404/6/5 400/6/5 403/6/5
f 405/6/5 402/6/5 401/6/5
f 406/6/5 402/6/5 405/6/5
f 409/2/5 408/2/5 407/2/5
f 410/2/5 408/2/5 409/2/5
f 414/6/5 410/6/5 409/6/5
f 415/6/5 410/6/5 414/6/5
f 419/3/5 412/3/5 411/3/5
f 420/3/5 412/3/5 419/3/5
f 421/2/5 415/2/5 414/2/5
f 421/2/5 414/2/5 413/2/5
f 421/2/5 416/2/5 415/2/5
f 422/2/5 416/2/5 421/2/5
f 423/3/5 418/3/5 417/3/5
f 424/3/5 418/3/5 423/3/5
f 429/2/5 426/2/5 425/2/5
f 430/2/5 426/2/5 429/2/5
f 431/2/5 428/2/5 427/2/5
f 432/2/5 428/2/5 431/2/5
f 437/3/5 434/3/5 433/3/5
f 438/3/5 434/3/5 437/3/5
f 439/3/5 436/3/5 435/3/5
f 440/3/5 436/3/5 439/3/5
f 445/2/5 442/2/5 441/2/5
f 446/2/5 442/2/5 445/2/5
f 447/2/5 444/2/5 443/2/5
f 448/2/5 444/2/5 447/2/5
f 451/3/5 450/3/5 449/3/5
f 452/3/5 450/3/5 451/3/5
f 457/3/5 454/3/5 453/3/5
f 458/3/5 456/3/5 455/3/5
f 459/3/5 457/3/5 453/3/5
f 459/3/5 458/3/5 457/3/5
f 460/3/5 456/3/5 458/3/5
f 460/3/5 458/3/5 459/3/5
f 461/3/5 459/3/5 453/3/5
f 462/3/5 456/3/5 460/3/5
f 463/3/5 461/3/5 453/3/5
f 463/3/5 462/3/5 461/3/5
f 464/3/5 462/3/5 463/3/5
f 465/3/5 456/3/5 462/3/5
f 465/3/5 462/3/5 464/3/5
f 466/3/5 456/3/5 465/3/5
f 467/3/5 465/3/5 464/3/5
f 468/3/5 465/3/5 467/3/5
f 473/3/5 470/3/5 469/3/5
f 474/3/5 470/3/5 473/3/5
f 475/3/5 472/3/5 471/3/5
f 476/3/5 472/3/5 475/3/5
f 477/5/5 474/5/5 473/5/5
f 478/5/5 474/5/5 477/5/5
f 479/5/5 476/5/5 475/5/5
f 480/5/5 476/5/5 479/5/5
f 481/3/5 478/3/5 477/3/5
f 482/3/5 478/3/5 481/3/5
f 485/3/5 480/3/5 479/3/5
f 486/3/5 480/3/5 485/3/5
f 487/3/5 483/3/5 482/3/5
f 488/3/5 483/3/5 487/3/5
f 489/3/5 485/3/5 484/3/5
f 490/3/5 485/3/5 489/3/5
f 493/2/5 492/2/5 491/2/5
f 494/2/5 492/2/5 493/2/5
f 496/2/5 493/2/5 491/2/5
f 497/1/5 494/1/5 493/1/5
f 497/2/5 493/2/5 496/2/5
f 498/1/5 494/1/5 497/1/5
f 499/1/5 494/1/5 498/1/5
f 500/2/5 492/2/5 494/2/5
f 500/1/5 494/1/5 499/1/5
f 501/2/5 492/2/5 500/2/5
f 503/2/5 496/2/5 495/2/5
f 504/2/5 502/2/5 501/2/5
f 505/2/5 503/2/5 495/2/5
f 506/2/5 502/2/5 504/2/5
f 507/2/5 505/2/5 495/2/5
f 510/2/5 502/2/5 506/2/5
f 511/2/5 508/2/5 507/2/5
f 511/2/5 507/2/5 495/2/5
f 512/2/5 508/2/5 511/2/5
f 513/2/5 508/2/5 512/2/5
f 516/2/5 510/2/5 509/2/5
f 517/2/5 502/2/5 510/2/5
f 517/2/5 510/2/5 516/2/5
f 518/2/5 502/2/5 517/2/5
f 519/2/5 513/2/5 512/2/5
f 519/2/5 514/2/5 513/2/5
f 520/10/5 515/10/5 514/10/5
f 520/2/5 514/2/5 519/2/5
f 521/2/5 516/2/5 515/2/5
f 521/10/5 515/10/5 520/10/5
f 521/2/5 517/2/5 516/2/5
f 522/2/5 517/2/5 521/2/5
f 523/3/6 524/3/6 527/3/6
f 527/3/6 524/3/6 528/3/6
f 525/3/6 526/3/6 529/3/6
f 529/3/6 526/3/6 530/3/6
f 531/2/6 532/2/6 537/2/6
f 537/2/6 532/2/6 538/2/6
f 533/2/6 534/2/6 539/2/6
f 539/2/6 534/2/6 540/2/6
f 535/3/6 536/3/6 543/3/6
f 543/3/6 536/3/6 544/3/6
f 541/3/6 542/3/6 545/3/6
f 545/3/6 542/3/6 546/3/6
f 547/2/6 548/2/6 550/2/6
f 550/2/6 548/2/6 551/2/6
f 549/2/6 550/2/6 553/2/6
f 553/2/6 550/2/6 554/2/6
f 554/2/6 550/2/6 555/2/6
f 551/2/6 552/2/6 556/2/6
f 556/2/6 552/2/6 557/2/6
f 557/2/6 552/2/6 558/2/6
f 554/2/6 555/2/6 559/2/6
f 556/2/6 557/2/6 559/2/6
f 555/2/6 556/2/6 559/2/6
f 559/2/6 557/2/6 560/2/6
f 561/2/6 562/2/6 563/2/6
f 563/2/6 562/2/6 564/2/6
f 564/2/6 562/2/6 565/2/6
f 565/2/6 562/2/6 566/2/6
f 567/2/6 568/2/6 572/2/6
f 568/10/6 569/10/6 573/10/6
f 572/2/6 568/2/6 573/2/6
f 569/2/6 570/2/6 574/2/6
f 573/10/6 569/10/6 574/10/6
f 574/2/6 570/2/6 575/2/6
f 571/2/6 572/2/6 577/2/6
f 577/2/6 572/2/6 578/2/6
f 575/2/6 576/2/6 581/2/6
f 581/2/6 576/2/6 582/2/6
f 578/2/6 579/2/6 583/2/6
f 579/10/6 580/10/6 584/10/6
f 583/2/6 579/2/6 584/2/6
f 580/2/6 581/2/6 585/2/6
f 584/10/6 580/10/6 585/10/6
f 585/2/6 581/2/6 586/2/6
f 587/2/6 588/2/6 591/2/6
f 588/10/6 589/10/6 592/10/6
f 591/2/6 588/2/6 592/2/6
f 589/2/6 590/2/6 593/2/6
f 592/10/6 589/10/6 593/10/6
f 593/2/6 590/2/6 594/2/6
f 587/2/6 591/2/6 595/2/6
f 594/2/6 590/2/6 598/2/6
f 587/2/6 595/2/6 599/2/6
f 595/2/6 596/2/6 599/2/6
f 596/10/6 597/10/6 600/10/6
f 599/2/6 596/2/6 600/2/6
f 597/2/6 598/2/6 601/2/6
f 600/10/6 597/10/6 601/10/6
f 598/2/6 590/2/6 602/2/6
f 601/2/6 598/2/6 602/2/6
f 603/2/6 604/2/6 607/2/6
f 604/10/6 605/10/6 608/10/6
f 607/2/6 604/2/6 608/2/6
f 605/2/6 606/2/6 609/2/6
f 608/10/6 605/10/6 609/10/6
f 609/2/6 606/2/6 610/2/6
