# MagicaVoxel @ Ephtracy

# material
mtllib Faucet.mtl
usemtl palette

# normals
vn -1 0 0
vn 1 0 0
vn 0 0 1
vn 0 0 -1
vn 0 -1 0
vn 0 1 0

# texcoords
vt 0.787109 0.5
vt 0.814453 0.5
vt 0.853516 0.5
vt 0.857422 0.5
vt 0.869141 0.5
vt 0.912109 0.5
vt 0.962891 0.5
vt 0.966797 0.5
vt 0.974609 0.5
vt 0.978516 0.5
vt 0.986328 0.5
vt 0.990234 0.5

# verts
v -4 8 5
v -4 8 3
v -4 9 5
v -4 9 3
v -4 11 5
v -4 11 3
v -4 12 5
v -4 12 3
v -3 6 -4
v -3 6 -5
v -3 7 5
v -3 7 3
v -3 8 5
v -3 8 3
v -3 9 3
v -3 9 -4
v -3 10 3
v -3 10 -4
v -3 11 3
v -3 11 -5
v -3 12 5
v -3 12 3
v -3 13 5
v -3 13 3
v -3 14 -1
v -3 14 -2
v -3 15 -1
v -3 15 -2
v -2 6 5
v -2 6 3
v -2 6 -3
v -2 6 -4
v -2 6 -5
v -2 6 -6
v -2 7 5
v -2 7 3
v -2 8 3
v -2 8 -3
v -2 9 3
v -2 9 -4
v -2 11 3
v -2 11 -5
v -2 11 -6
v -2 12 3
v -2 12 -5
v -2 13 5
v -2 13 3
v -2 14 5
v -2 14 3
v -2 14 -0
v -2 14 -1
v -2 14 -2
v -2 14 -3
v -2 15 -0
v -2 15 -1
v -2 15 -2
v -2 15 -3
v -1 6 -2
v -1 6 -3
v -1 6 -6
v -1 6 -7
v -1 7 3
v -1 7 -2
v -1 8 3
v -1 8 -3
v -1 10 -6
v -1 10 -7
v -1 12 -1
v -1 12 -2
v -1 14 1
v -1 14 -0
v -1 14 -1
v -1 14 -2
v -1 14 -3
v -1 14 -4
v -1 15 1
v -1 15 -0
v -1 15 -1
v -1 15 -2
v -1 15 -3
v -1 15 -4
v -1 16 -1
v -1 16 -2
v 0 6 -3
v 0 6 -4
v 0 6 -5
v 0 6 -6
v 0 8 4
v 0 8 3
v 0 8 -3
v 0 8 -5
v 0 8 -6
v 0 9 3
v 0 9 -3
v 0 9 -4
v 0 10 4
v 0 10 3
v 0 10 -4
v 0 11 3
v 0 11 -1
v 0 11 -2
v 0 11 -4
v 1 6 -4
v 1 6 -5
v 1 9 3
v 1 9 -4
v 1 10 3
v 1 10 -4
v 1 10 -5
v -2 6 -4
v -2 6 -5
v -2 9 3
v -2 9 -4
v -2 10 3
v -2 10 -4
v -2 10 -5
v -1 6 -3
v -1 6 -4
v -1 6 -5
v -1 6 -6
v -1 8 4
v -1 8 3
v -1 8 -3
v -1 8 -5
v -1 8 -6
v -1 9 4
v -1 9 3
v -1 9 -3
v -1 9 -4
v -1 10 4
v -1 10 3
v -1 10 -4
v -1 11 3
v -1 11 -1
v -1 11 -2
v -1 11 -4
v 0 6 -2
v 0 6 -3
v 0 6 -6
v 0 6 -7
v 0 7 3
v 0 7 -2
v 0 8 3
v 0 8 -3
v 0 10 -6
v 0 10 -7
v 0 12 -1
v 0 12 -2
v 0 14 1
v 0 14 -0
v 0 14 -1
v 0 14 -2
v 0 14 -3
v 0 14 -4
v 0 15 1
v 0 15 -0
v 0 15 -1
v 0 15 -2
v 0 15 -3
v 0 15 -4
v 0 16 -1
v 0 16 -2
v 1 6 5
v 1 6 3
v 1 6 -3
v 1 6 -4
v 1 6 -5
v 1 6 -6
v 1 7 5
v 1 7 3
v 1 8 3
v 1 8 -3
v 1 9 3
v 1 9 -4
v 1 11 3
v 1 11 -5
v 1 11 -6
v 1 12 3
v 1 12 -5
v 1 13 5
v 1 13 3
v 1 14 5
v 1 14 3
v 1 14 -0
v 1 14 -1
v 1 14 -2
v 1 14 -3
v 1 15 -0
v 1 15 -1
v 1 15 -2
v 1 15 -3
v 2 6 -4
v 2 6 -5
v 2 7 5
v 2 7 3
v 2 8 5
v 2 8 3
v 2 9 3
v 2 9 -4
v 2 10 3
v 2 10 -4
v 2 11 3
v 2 11 -5
v 2 12 5
v 2 12 3
v 2 13 5
v 2 13 3
v 2 14 -1
v 2 14 -2
v 2 15 -1
v 2 15 -2
v 3 8 5
v 3 8 3
v 3 9 5
v 3 9 3
v 3 11 5
v 3 11 3
v 3 12 5
v 3 12 3
v -4 8 5
v -4 9 5
v -4 11 5
v -4 12 5
v -3 7 5
v -3 8 5
v -3 9 5
v -3 11 5
v -3 12 5
v -3 13 5
v -2 6 5
v -2 7 5
v -2 8 5
v -2 12 5
v -2 13 5
v -2 14 5
v 1 6 5
v 1 7 5
v 1 8 5
v 1 12 5
v 1 13 5
v 1 14 5
v 2 7 5
v 2 8 5
v 2 9 5
v 2 11 5
v 2 12 5
v 2 13 5
v 3 8 5
v 3 9 5
v 3 11 5
v 3 12 5
v -1 8 3
v -1 9 3
v 0 8 3
v 0 9 3
v -1 14 1
v -1 15 1
v 0 14 1
v 0 15 1
v -2 14 -0
v -2 15 -0
v -1 14 -0
v -1 15 -0
v 0 14 -0
v 0 15 -0
v 1 14 -0
v 1 15 -0
v -3 14 -1
v -3 15 -1
v -2 14 -1
v -2 15 -1
v -1 12 -1
v -1 14 -1
v -1 15 -1
v -1 16 -1
v 0 12 -1
v 0 14 -1
v 0 15 -1
v 0 16 -1
v 1 14 -1
v 1 15 -1
v 2 14 -1
v 2 15 -1
v -1 6 -2
v -1 7 -2
v 0 6 -2
v 0 7 -2
v -2 6 -3
v -2 8 -3
v -1 6 -3
v -1 8 -3
v 0 6 -3
v 0 8 -3
v 1 6 -3
v 1 8 -3
v -3 6 -4
v -3 9 -4
v -2 6 -4
v -2 9 -4
v -1 10 -4
v -1 11 -4
v 0 10 -4
v 0 11 -4
v 1 6 -4
v 1 9 -4
v 2 6 -4
v 2 9 -4
v -2 6 -5
v -2 10 -5
v -1 6 -5
v -1 8 -5
v -1 10 -5
v 0 6 -5
v 0 8 -5
v 0 10 -5
v 1 6 -5
v 1 10 -5
v -1 6 -6
v -1 8 -6
v 0 6 -6
v 0 8 -6
v -1 8 4
v -1 9 4
v -1 10 4
v 0 8 4
v 0 10 4
v -4 8 3
v -4 9 3
v -4 11 3
v -4 12 3
v -3 7 3
v -3 8 3
v -3 9 3
v -3 10 3
v -3 11 3
v -3 12 3
v -3 13 3
v -2 6 3
v -2 7 3
v -2 8 3
v -2 9 3
v -2 10 3
v -2 11 3
v -2 12 3
v -2 13 3
v -2 14 3
v -1 7 3
v -1 8 3
v -1 9 3
v -1 10 3
v -1 11 3
v -1 12 3
v 0 7 3
v 0 8 3
v 0 9 3
v 0 10 3
v 0 11 3
v 0 12 3
v 1 6 3
v 1 7 3
v 1 8 3
v 1 9 3
v 1 10 3
v 1 11 3
v 1 12 3
v 1 13 3
v 1 14 3
v 2 7 3
v 2 8 3
v 2 9 3
v 2 10 3
v 2 11 3
v 2 12 3
v 2 13 3
v 3 8 3
v 3 9 3
v 3 11 3
v 3 12 3
v -3 14 -2
v -3 15 -2
v -2 14 -2
v -2 15 -2
v -1 12 -2
v -1 14 -2
v -1 15 -2
v -1 16 -2
v 0 12 -2
v 0 14 -2
v 0 15 -2
v 0 16 -2
v 1 14 -2
v 1 15 -2
v 2 14 -2
v 2 15 -2
v -2 14 -3
v -2 15 -3
v -1 6 -3
v -1 8 -3
v -1 9 -3
v -1 14 -3
v -1 15 -3
v 0 6 -3
v 0 8 -3
v 0 9 -3
v 0 14 -3
v 0 15 -3
v 1 14 -3
v 1 15 -3
v -2 6 -4
v -2 9 -4
v -1 6 -4
v -1 9 -4
v -1 14 -4
v -1 15 -4
v 0 6 -4
v 0 9 -4
v 0 14 -4
v 0 15 -4
v 1 6 -4
v 1 9 -4
v -3 6 -5
v -3 11 -5
v -2 6 -5
v -2 11 -5
v -2 12 -5
v -1 11 -5
v -1 12 -5
v 0 11 -5
v 0 12 -5
v 1 6 -5
v 1 11 -5
v 1 12 -5
v 2 6 -5
v 2 11 -5
v -2 6 -6
v -2 11 -6
v -1 6 -6
v -1 10 -6
v -1 11 -6
v 0 6 -6
v 0 10 -6
v 0 11 -6
v 1 6 -6
v 1 11 -6
v -1 6 -7
v -1 10 -7
v 0 6 -7
v 0 10 -7
v -2 6 5
v 1 6 5
v -2 6 3
v 1 6 3
v -1 6 -2
v 0 6 -2
v -2 6 -3
v -1 6 -3
v 0 6 -3
v 1 6 -3
v -3 6 -4
v -2 6 -4
v -1 6 -4
v 0 6 -4
v 1 6 -4
v 2 6 -4
v -3 6 -5
v -2 6 -5
v -1 6 -5
v 0 6 -5
v 1 6 -5
v 2 6 -5
v -2 6 -6
v -1 6 -6
v 0 6 -6
v 1 6 -6
v -1 6 -7
v 0 6 -7
v -3 7 5
v -2 7 5
v 1 7 5
v 2 7 5
v -3 7 3
v -2 7 3
v -1 7 3
v 0 7 3
v 1 7 3
v 2 7 3
v -1 7 -2
v 0 7 -2
v -4 8 5
v -3 8 5
v 2 8 5
v 3 8 5
v -4 8 3
v -3 8 3
v -2 8 3
v -1 8 3
v 0 8 3
v 1 8 3
v 2 8 3
v 3 8 3
v -2 8 -3
v -1 8 -3
v 0 8 -3
v 1 8 -3
v -1 8 -5
v 0 8 -5
v -1 8 -6
v 0 8 -6
v -3 9 3
v -2 9 3
v 1 9 3
v 2 9 3
v -3 9 -4
v -2 9 -4
v 1 9 -4
v 2 9 -4
v -1 10 4
v 0 10 4
v -2 10 3
v -1 10 3
v 0 10 3
v 1 10 3
v -2 10 -4
v -1 10 -4
v 0 10 -4
v 1 10 -4
v -2 10 -5
v -1 10 -5
v 0 10 -5
v 1 10 -5
v -1 11 3
v 0 11 3
v -1 11 -1
v 0 11 -1
v -1 11 -2
v 0 11 -2
v -1 11 -4
v 0 11 -4
v -1 14 1
v 0 14 1
v -2 14 -0
v -1 14 -0
v 0 14 -0
v 1 14 -0
v -3 14 -1
v -2 14 -1
v -1 14 -1
v 0 14 -1
v 1 14 -1
v 2 14 -1
v -3 14 -2
v -2 14 -2
v -1 14 -2
v 0 14 -2
v 1 14 -2
v 2 14 -2
v -2 14 -3
v -1 14 -3
v 0 14 -3
v 1 14 -3
v -1 14 -4
v 0 14 -4
v -1 8 4
v 0 8 4
v -1 8 3
v 0 8 3
v -2 9 3
v -1 9 3
v 0 9 3
v 1 9 3
v -1 9 -3
v 0 9 -3
v -2 9 -4
v -1 9 -4
v 0 9 -4
v 1 9 -4
v -1 10 -6
v 0 10 -6
v -1 10 -7
v 0 10 -7
v -3 11 3
v -2 11 3
v 1 11 3
v 2 11 3
v -3 11 -5
v -2 11 -5
v -1 11 -5
v 0 11 -5
v 1 11 -5
v 2 11 -5
v -2 11 -6
v -1 11 -6
v 0 11 -6
v 1 11 -6
v -4 12 5
v -3 12 5
v 2 12 5
v 3 12 5
v -4 12 3
v -3 12 3
v -2 12 3
v -1 12 3
v 0 12 3
v 1 12 3
v 2 12 3
v 3 12 3
v -1 12 -1
v 0 12 -1
v -1 12 -2
v 0 12 -2
v -2 12 -5
v -1 12 -5
v 0 12 -5
v 1 12 -5
v -3 13 5
v -2 13 5
v 1 13 5
v 2 13 5
v -3 13 3
v -2 13 3
v 1 13 3
v 2 13 3
v -2 14 5
v 1 14 5
v -2 14 3
v 1 14 3
v -1 15 1
v 0 15 1
v -2 15 -0
v -1 15 -0
v 0 15 -0
v 1 15 -0
v -3 15 -1
v -2 15 -1
v -1 15 -1
v 0 15 -1
v 1 15 -1
v 2 15 -1
v -3 15 -2
v -2 15 -2
v -1 15 -2
v 0 15 -2
v 1 15 -2
v 2 15 -2
v -2 15 -3
v -1 15 -3
v 0 15 -3
v 1 15 -3
v -1 15 -4
v 0 15 -4
v -1 16 -1
v 0 16 -1
v -1 16 -2
v 0 16 -2

# faces
f 3/6/1 2/6/1 1/6/1
f 4/6/1 2/6/1 3/6/1
f 5/2/1 4/2/1 3/2/1
f 6/2/1 4/2/1 5/2/1
f 7/1/1 6/1/1 5/1/1
f 8/1/1 6/1/1 7/1/1
f 13/6/1 12/6/1 11/6/1
f 14/6/1 12/6/1 13/6/1
f 16/8/1 10/8/1 9/8/1
f 17/9/1 16/9/1 15/9/1
f 18/8/1 10/8/1 16/8/1
f 18/9/1 16/9/1 17/9/1
f 19/8/1 18/8/1 17/8/1
f 20/8/1 10/8/1 18/8/1
f 20/8/1 18/8/1 19/8/1
f 23/1/1 22/1/1 21/1/1
f 24/1/1 22/1/1 23/1/1
f 27/4/1 26/4/1 25/4/1
f 28/4/1 26/4/1 27/4/1
f 35/6/1 30/6/1 29/6/1
f 36/6/1 30/6/1 35/6/1
f 38/10/1 32/10/1 31/10/1
f 39/10/1 38/10/1 37/10/1
f 40/10/1 32/10/1 38/10/1
f 40/10/1 38/10/1 39/10/1
f 42/10/1 34/10/1 33/10/1
f 43/10/1 34/10/1 42/10/1
f 44/10/1 42/10/1 41/10/1
f 45/10/1 42/10/1 44/10/1
f 48/1/1 47/1/1 46/1/1
f 49/1/1 47/1/1 48/1/1
f 54/4/1 51/4/1 50/4/1
f 55/4/1 51/4/1 54/4/1
f 56/3/1 53/3/1 52/3/1
f 57/3/1 53/3/1 56/3/1
f 63/11/1 59/11/1 58/11/1
f 64/11/1 63/11/1 62/11/1
f 65/11/1 59/11/1 63/11/1
f 65/11/1 63/11/1 64/11/1
f 66/7/1 61/7/1 60/7/1
f 67/7/1 61/7/1 66/7/1
f 72/12/1 69/12/1 68/12/1
f 73/12/1 69/12/1 72/12/1
f 76/4/1 71/4/1 70/4/1
f 77/4/1 71/4/1 76/4/1
f 80/4/1 75/4/1 74/4/1
f 81/4/1 75/4/1 80/4/1
f 82/10/1 79/10/1 78/10/1
f 83/10/1 79/10/1 82/10/1
f 90/10/1 85/10/1 84/10/1
f 91/10/1 87/10/1 86/10/1
f 92/10/1 87/10/1 91/10/1
f 93/8/1 89/8/1 88/8/1
f 94/10/1 85/10/1 90/10/1
f 95/10/1 85/10/1 94/10/1
f 96/8/1 93/8/1 88/8/1
f 97/8/1 93/8/1 96/8/1
f 99/8/1 98/8/1 97/8/1
f 100/8/1 98/8/1 99/8/1
f 101/8/1 98/8/1 100/8/1
f 102/8/1 98/8/1 101/8/1
f 106/8/1 104/8/1 103/8/1
f 107/9/1 106/9/1 105/9/1
f 108/8/1 104/8/1 106/8/1
f 108/9/1 106/9/1 107/9/1
f 109/8/1 104/8/1 108/8/1
f 110/8/2 111/8/2 113/8/2
f 112/9/2 113/9/2 114/9/2
f 113/8/2 111/8/2 115/8/2
f 114/9/2 113/9/2 115/9/2
f 115/8/2 111/8/2 116/8/2
f 117/10/2 118/10/2 123/10/2
f 119/10/2 120/10/2 124/10/2
f 124/10/2 120/10/2 125/10/2
f 121/10/2 122/10/2 126/10/2
f 126/10/2 122/10/2 127/10/2
f 123/10/2 118/10/2 128/10/2
f 128/10/2 118/10/2 129/10/2
f 126/8/2 127/8/2 130/8/2
f 130/8/2 127/8/2 131/8/2
f 131/8/2 132/8/2 133/8/2
f 133/8/2 132/8/2 134/8/2
f 134/8/2 132/8/2 135/8/2
f 135/8/2 132/8/2 136/8/2
f 137/11/2 138/11/2 142/11/2
f 141/11/2 142/11/2 143/11/2
f 142/11/2 138/11/2 144/11/2
f 143/11/2 142/11/2 144/11/2
f 139/7/2 140/7/2 145/7/2
f 145/7/2 140/7/2 146/7/2
f 147/12/2 148/12/2 151/12/2
f 151/12/2 148/12/2 152/12/2
f 149/4/2 150/4/2 155/4/2
f 155/4/2 150/4/2 156/4/2
f 153/4/2 154/4/2 159/4/2
f 159/4/2 154/4/2 160/4/2
f 157/10/2 158/10/2 161/10/2
f 161/10/2 158/10/2 162/10/2
f 163/6/2 164/6/2 169/6/2
f 169/6/2 164/6/2 170/6/2
f 165/10/2 166/10/2 172/10/2
f 171/10/2 172/10/2 173/10/2
f 172/10/2 166/10/2 174/10/2
f 173/10/2 172/10/2 174/10/2
f 167/10/2 168/10/2 176/10/2
f 176/10/2 168/10/2 177/10/2
f 175/10/2 176/10/2 178/10/2
f 178/10/2 176/10/2 179/10/2
f 180/1/2 181/1/2 182/1/2
f 182/1/2 181/1/2 183/1/2
f 184/4/2 185/4/2 188/4/2
f 188/4/2 185/4/2 189/4/2
f 186/4/2 187/4/2 190/4/2
f 190/4/2 187/4/2 191/4/2
f 194/6/2 195/6/2 196/6/2
f 196/6/2 195/6/2 197/6/2
f 192/8/2 193/8/2 199/8/2
f 198/9/2 199/9/2 200/9/2
f 199/8/2 193/8/2 201/8/2
f 200/9/2 199/9/2 201/9/2
f 200/8/2 201/8/2 202/8/2
f 201/8/2 193/8/2 203/8/2
f 202/8/2 201/8/2 203/8/2
f 204/1/2 205/1/2 206/1/2
f 206/1/2 205/1/2 207/1/2
f 208/4/2 209/4/2 210/4/2
f 210/4/2 209/4/2 211/4/2
f 212/6/2 213/6/2 214/6/2
f 214/6/2 213/6/2 215/6/2
f 214/2/2 215/2/2 216/2/2
f 216/2/2 215/2/2 217/2/2
f 216/1/2 217/1/2 218/1/2
f 218/1/2 217/1/2 219/1/2
f 225/6/3 221/6/3 220/6/3
f 226/2/3 222/2/3 221/2/3
f 226/6/3 221/6/3 225/6/3
f 227/1/3 223/1/3 222/1/3
f 227/2/3 222/2/3 226/2/3
f 228/1/3 223/1/3 227/1/3
f 231/6/3 225/6/3 224/6/3
f 232/2/3 226/2/3 225/2/3
f 232/2/3 227/2/3 226/2/3
f 232/6/3 225/6/3 231/6/3
f 232/2/3 228/2/3 227/2/3
f 233/1/3 229/1/3 228/1/3
f 233/2/3 228/2/3 232/2/3
f 234/1/3 229/1/3 233/1/3
f 236/6/3 231/6/3 230/6/3
f 237/2/3 232/2/3 231/2/3
f 237/6/3 231/6/3 236/6/3
f 237/2/3 233/2/3 232/2/3
f 237/2/3 234/2/3 233/2/3
f 238/2/3 234/2/3 237/2/3
f 239/2/3 234/2/3 238/2/3
f 240/1/3 235/1/3 234/1/3
f 240/2/3 234/2/3 239/2/3
f 241/1/3 235/1/3 240/1/3
f 242/6/3 238/6/3 237/6/3
f 243/2/3 239/2/3 238/2/3
f 243/6/3 238/6/3 242/6/3
f 244/2/3 239/2/3 243/2/3
f 245/2/3 239/2/3 244/2/3
f 246/1/3 240/1/3 239/1/3
f 246/2/3 239/2/3 245/2/3
f 247/1/3 240/1/3 246/1/3
f 248/6/3 244/6/3 243/6/3
f 249/2/3 245/2/3 244/2/3
f 249/6/3 244/6/3 248/6/3
f 250/1/3 246/1/3 245/1/3
f 250/2/3 245/2/3 249/2/3
f 251/1/3 246/1/3 250/1/3
f 254/8/3 253/8/3 252/8/3
f 255/8/3 253/8/3 254/8/3
f 258/4/3 257/4/3 256/4/3
f 259/4/3 257/4/3 258/4/3
f 262/4/3 261/4/3 260/4/3
f 263/4/3 261/4/3 262/4/3
f 266/4/3 265/4/3 264/4/3
f 267/4/3 265/4/3 266/4/3
f 270/4/3 269/4/3 268/4/3
f 271/4/3 269/4/3 270/4/3
f 276/12/3 273/12/3 272/12/3
f 277/12/3 273/12/3 276/12/3
f 278/10/3 275/10/3 274/10/3
f 279/10/3 275/10/3 278/10/3
f 282/4/3 281/4/3 280/4/3
f 283/4/3 281/4/3 282/4/3
f 286/11/3 285/11/3 284/11/3
f 287/11/3 285/11/3 286/11/3
f 290/10/3 289/10/3 288/10/3
f 291/10/3 289/10/3 290/10/3
f 294/10/3 293/10/3 292/10/3
f 295/10/3 293/10/3 294/10/3
f 298/8/3 297/8/3 296/8/3
f 299/8/3 297/8/3 298/8/3
f 302/8/3 301/8/3 300/8/3
f 303/8/3 301/8/3 302/8/3
f 306/8/3 305/8/3 304/8/3
f 307/8/3 305/8/3 306/8/3
f 310/10/3 309/10/3 308/10/3
f 311/10/3 309/10/3 310/10/3
f 312/10/3 309/10/3 311/10/3
f 314/8/3 312/8/3 311/8/3
f 315/8/3 312/8/3 314/8/3
f 316/10/3 314/10/3 313/10/3
f 316/10/3 315/10/3 314/10/3
f 317/10/3 315/10/3 316/10/3
f 320/7/3 319/7/3 318/7/3
f 321/7/3 319/7/3 320/7/3
f 322/2/4 323/2/4 325/2/4
f 323/2/4 324/2/4 325/2/4
f 325/2/4 324/2/4 326/2/4
f 327/6/4 328/6/4 332/6/4
f 328/2/4 329/2/4 333/2/4
f 332/6/4 328/6/4 333/6/4
f 333/2/4 329/2/4 334/2/4
f 329/1/4 330/1/4 335/1/4
f 334/2/4 329/2/4 335/2/4
f 335/1/4 330/1/4 336/1/4
f 331/6/4 332/6/4 339/6/4
f 332/2/4 333/2/4 340/2/4
f 339/6/4 332/6/4 340/6/4
f 340/2/4 333/2/4 341/2/4
f 335/2/4 336/2/4 343/2/4
f 336/1/4 337/1/4 344/1/4
f 343/2/4 336/2/4 344/2/4
f 344/1/4 337/1/4 345/1/4
f 338/6/4 339/6/4 347/6/4
f 339/2/4 340/2/4 347/2/4
f 347/2/4 340/2/4 348/2/4
f 341/8/4 342/8/4 349/8/4
f 349/8/4 342/8/4 350/8/4
f 344/2/4 345/2/4 352/2/4
f 338/6/4 347/6/4 353/6/4
f 350/8/4 351/8/4 356/8/4
f 356/8/4 351/8/4 357/8/4
f 352/2/4 345/2/4 358/2/4
f 338/6/4 353/6/4 359/6/4
f 353/2/4 354/2/4 360/2/4
f 359/6/4 353/6/4 360/6/4
f 360/2/4 354/2/4 361/2/4
f 355/8/4 356/8/4 362/8/4
f 362/8/4 356/8/4 363/8/4
f 358/2/4 345/2/4 365/2/4
f 345/1/4 346/1/4 366/1/4
f 365/2/4 345/2/4 366/2/4
f 366/1/4 346/1/4 367/1/4
f 360/6/4 361/6/4 368/6/4
f 361/2/4 362/2/4 369/2/4
f 368/6/4 361/6/4 369/6/4
f 369/2/4 362/2/4 370/2/4
f 364/2/4 365/2/4 372/2/4
f 365/1/4 366/1/4 373/1/4
f 372/2/4 365/2/4 373/2/4
f 373/1/4 366/1/4 374/1/4
f 369/6/4 370/6/4 375/6/4
f 370/2/4 371/2/4 376/2/4
f 375/6/4 370/6/4 376/6/4
f 371/2/4 372/2/4 376/2/4
f 372/1/4 373/1/4 377/1/4
f 376/2/4 372/2/4 377/2/4
f 377/1/4 373/1/4 378/1/4
f 379/4/4 380/4/4 381/4/4
f 381/4/4 380/4/4 382/4/4
f 383/12/4 384/12/4 387/12/4
f 387/12/4 384/12/4 388/12/4
f 385/10/4 386/10/4 389/10/4
f 389/10/4 386/10/4 390/10/4
f 391/4/4 392/4/4 393/4/4
f 393/4/4 392/4/4 394/4/4
f 395/3/4 396/3/4 400/3/4
f 400/3/4 396/3/4 401/3/4
f 397/11/4 398/11/4 402/11/4
f 398/8/4 399/8/4 403/8/4
f 402/11/4 398/11/4 403/11/4
f 403/8/4 399/8/4 404/8/4
f 405/4/4 406/4/4 407/4/4
f 407/4/4 406/4/4 408/4/4
f 409/10/4 410/10/4 411/10/4
f 411/10/4 410/10/4 412/10/4
f 413/4/4 414/4/4 417/4/4
f 417/4/4 414/4/4 418/4/4
f 415/10/4 416/10/4 419/10/4
f 419/10/4 416/10/4 420/10/4
f 421/8/4 422/8/4 423/8/4
f 423/8/4 422/8/4 424/8/4
f 424/10/4 425/10/4 426/10/4
f 426/10/4 425/10/4 427/10/4
f 426/7/4 427/7/4 428/7/4
f 428/7/4 427/7/4 429/7/4
f 428/10/4 429/10/4 431/10/4
f 431/10/4 429/10/4 432/10/4
f 430/8/4 431/8/4 433/8/4
f 433/8/4 431/8/4 434/8/4
f 435/10/4 436/10/4 437/10/4
f 437/10/4 436/10/4 438/10/4
f 438/10/4 436/10/4 439/10/4
f 438/7/4 439/7/4 441/7/4
f 441/7/4 439/7/4 442/7/4
f 440/10/4 441/10/4 443/10/4
f 441/10/4 442/10/4 443/10/4
f 443/10/4 442/10/4 444/10/4
f 445/7/4 446/7/4 447/7/4
f 447/7/4 446/7/4 448/7/4
f 451/6/5 450/6/5 449/6/5
f 452/6/5 450/6/5 451/6/5
f 456/11/5 454/11/5 453/11/5
f 457/11/5 454/11/5 456/11/5
f 460/10/5 456/10/5 455/10/5
f 461/10/5 456/10/5 460/10/5
f 462/10/5 458/10/5 457/10/5
f 463/10/5 458/10/5 462/10/5
f 465/8/5 460/8/5 459/8/5
f 466/8/5 460/8/5 465/8/5
f 469/8/5 464/8/5 463/8/5
f 470/8/5 464/8/5 469/8/5
f 471/10/5 467/10/5 466/10/5
f 472/10/5 467/10/5 471/10/5
f 473/10/5 469/10/5 468/10/5
f 474/10/5 469/10/5 473/10/5
f 475/7/5 473/7/5 472/7/5
f 476/7/5 473/7/5 475/7/5
f 481/6/5 478/6/5 477/6/5
f 482/6/5 478/6/5 481/6/5
f 485/6/5 480/6/5 479/6/5
f 486/6/5 480/6/5 485/6/5
f 487/11/5 484/11/5 483/11/5
f 488/11/5 484/11/5 487/11/5
f 493/6/5 490/6/5 489/6/5
f 494/6/5 490/6/5 493/6/5
f 499/6/5 492/6/5 491/6/5
f 500/6/5 492/6/5 499/6/5
f 501/10/5 496/10/5 495/10/5
f 502/10/5 496/10/5 501/10/5
f 503/10/5 498/10/5 497/10/5
f 504/10/5 498/10/5 503/10/5
f 507/8/5 506/8/5 505/8/5
f 508/8/5 506/8/5 507/8/5
f 513/9/5 510/9/5 509/9/5
f 514/9/5 510/9/5 513/9/5
f 515/9/5 512/9/5 511/9/5
f 516/9/5 512/9/5 515/9/5
f 520/8/5 518/8/5 517/8/5
f 521/8/5 518/8/5 520/8/5
f 523/8/5 520/8/5 519/8/5
f 524/8/5 520/8/5 523/8/5
f 525/8/5 522/8/5 521/8/5
f 526/8/5 522/8/5 525/8/5
f 527/8/5 524/8/5 523/8/5
f 527/8/5 525/8/5 524/8/5
f 528/8/5 525/8/5 527/8/5
f 529/9/5 526/9/5 525/9/5
f 529/8/5 525/8/5 528/8/5
f 530/9/5 526/9/5 529/9/5
f 533/7/5 532/7/5 531/7/5
f 534/7/5 532/7/5 533/7/5
f 535/8/5 534/8/5 533/8/5
f 536/8/5 534/8/5 535/8/5
f 537/7/5 536/7/5 535/7/5
f 538/7/5 536/7/5 537/7/5
f 542/4/5 540/4/5 539/4/5
f 543/4/5 540/4/5 542/4/5
f 546/4/5 542/4/5 541/4/5
f 547/5/5 543/5/5 542/5/5
f 547/4/5 542/4/5 546/4/5
f 548/4/5 544/4/5 543/4/5
f 548/5/5 543/5/5 547/5/5
f 549/4/5 544/4/5 548/4/5
f 551/4/5 546/4/5 545/4/5
f 552/5/5 547/5/5 546/5/5
f 552/4/5 546/4/5 551/4/5
f 553/5/5 547/5/5 552/5/5
f 554/5/5 549/5/5 548/5/5
f 555/4/5 550/4/5 549/4/5
f 555/5/5 549/5/5 554/5/5
f 556/4/5 550/4/5 555/4/5
f 557/3/5 553/3/5 552/3/5
f 558/5/5 554/5/5 553/5/5
f 558/3/5 553/3/5 557/3/5
f 559/4/5 555/4/5 554/4/5
f 559/5/5 554/5/5 558/5/5
f 560/4/5 555/4/5 559/4/5
f 561/4/5 559/4/5 558/4/5
f 562/4/5 559/4/5 561/4/5
f 563/8/6 564/8/6 565/8/6
f 565/8/6 564/8/6 566/8/6
f 567/10/6 568/10/6 571/10/6
f 568/8/6 569/8/6 571/8/6
f 569/10/6 570/10/6 572/10/6
f 571/8/6 569/8/6 572/8/6
f 567/10/6 571/10/6 573/10/6
f 573/10/6 571/10/6 574/10/6
f 572/10/6 570/10/6 575/10/6
f 575/10/6 570/10/6 576/10/6
f 577/7/6 578/7/6 579/7/6
f 579/7/6 578/7/6 580/7/6
f 581/8/6 582/8/6 585/8/6
f 585/8/6 582/8/6 586/8/6
f 583/8/6 584/8/6 589/8/6
f 589/8/6 584/8/6 590/8/6
f 586/10/6 587/10/6 591/10/6
f 587/7/6 588/7/6 592/7/6
f 591/10/6 587/10/6 592/10/6
f 588/10/6 589/10/6 593/10/6
f 592/7/6 588/7/6 593/7/6
f 593/10/6 589/10/6 594/10/6
f 595/1/6 596/1/6 599/1/6
f 599/1/6 596/1/6 600/1/6
f 597/1/6 598/1/6 605/1/6
f 605/1/6 598/1/6 606/1/6
f 601/10/6 602/10/6 607/10/6
f 602/7/6 603/7/6 607/7/6
f 603/10/6 604/10/6 608/10/6
f 607/7/6 603/7/6 608/7/6
f 601/10/6 607/10/6 609/10/6
f 608/10/6 604/10/6 610/10/6
f 601/10/6 609/10/6 611/10/6
f 609/7/6 610/7/6 612/7/6
f 611/10/6 609/10/6 612/10/6
f 610/10/6 604/10/6 613/10/6
f 612/7/6 610/7/6 613/7/6
f 613/10/6 604/10/6 614/10/6
f 615/1/6 616/1/6 619/1/6
f 619/1/6 616/1/6 620/1/6
f 617/1/6 618/1/6 621/1/6
f 621/1/6 618/1/6 622/1/6
f 623/1/6 624/1/6 625/1/6
f 625/1/6 624/1/6 626/1/6
f 627/4/6 628/4/6 630/4/6
f 630/4/6 628/4/6 631/4/6
f 629/4/6 630/4/6 634/4/6
f 630/5/6 631/5/6 635/5/6
f 634/4/6 630/4/6 635/4/6
f 631/4/6 632/4/6 636/4/6
f 635/5/6 631/5/6 636/5/6
f 636/4/6 632/4/6 637/4/6
f 633/4/6 634/4/6 639/4/6
f 634/5/6 635/5/6 640/5/6
f 639/4/6 634/4/6 640/4/6
f 640/5/6 635/5/6 641/5/6
f 636/5/6 637/5/6 642/5/6
f 637/4/6 638/4/6 643/4/6
f 642/5/6 637/5/6 643/5/6
f 643/4/6 638/4/6 644/4/6
f 640/3/6 641/3/6 645/3/6
f 641/5/6 642/5/6 646/5/6
f 645/3/6 641/3/6 646/3/6
f 642/4/6 643/4/6 647/4/6
f 646/5/6 642/5/6 647/5/6
f 647/4/6 643/4/6 648/4/6
f 646/4/6 647/4/6 649/4/6
f 649/4/6 647/4/6 650/4/6
f 651/10/6 652/10/6 653/10/6
f 653/10/6 652/10/6 654/10/6
