# MagicaVoxel @ Ephtracy

# material
mtllib Light_Switch_Off.mtl
usemtl palette

# normals
vn -1 0 0
vn 1 0 0
vn 0 0 1
vn 0 0 -1
vn 0 -1 0
vn 0 1 0

# texcoords
vt 0.333984 0.5
vt 0.384766 0.5
vt 0.435547 0.5
vt 0.466797 0.5
vt 0.486328 0.5

# verts
v -3.5 1 -4.5
v -3.5 1 -6.5
v -3.5 2 -4.5
v -3.5 2 -6.5
v -3.5 3 -5.5
v -3.5 3 -6.5
v -3.5 4 -5.5
v -3.5 4 -6.5
v -3.5 5 -5.5
v -3.5 5 -6.5
v -3.5 6 -5.5
v -3.5 6 -6.5
v -3.5 12 -4.5
v -3.5 12 -6.5
v -1.5 4 -1.5
v -1.5 4 -5.5
v -1.5 6 -1.5
v -1.5 6 -4.5
v -1.5 9 -4.5
v -1.5 9 -5.5
v 2.5 3 -4.5
v 2.5 3 -5.5
v 2.5 10 -4.5
v 2.5 10 -5.5
v -2.5 3 -4.5
v -2.5 3 -5.5
v -2.5 10 -4.5
v -2.5 10 -5.5
v 1.5 4 -1.5
v 1.5 4 -5.5
v 1.5 6 -1.5
v 1.5 6 -4.5
v 1.5 9 -4.5
v 1.5 9 -5.5
v 3.5 1 -4.5
v 3.5 1 -6.5
v 3.5 2 -4.5
v 3.5 2 -6.5
v 3.5 3 -5.5
v 3.5 3 -6.5
v 3.5 4 -5.5
v 3.5 4 -6.5
v 3.5 5 -5.5
v 3.5 5 -6.5
v 3.5 6 -5.5
v 3.5 6 -6.5
v 3.5 12 -4.5
v 3.5 12 -6.5
v -1.5 4 -1.5
v -1.5 6 -1.5
v 1.5 4 -1.5
v 1.5 6 -1.5
v -3.5 1 -4.5
v -3.5 2 -4.5
v -3.5 12 -4.5
v -2.5 1 -4.5
v -2.5 2 -4.5
v -2.5 3 -4.5
v -2.5 10 -4.5
v -2.5 11 -4.5
v -1.5 1 -4.5
v -1.5 2 -4.5
v -1.5 3 -4.5
v -1.5 6 -4.5
v -1.5 9 -4.5
v -1.5 10 -4.5
v -1.5 11 -4.5
v -0.5 1 -4.5
v -0.5 2 -4.5
v -0.5 3 -4.5
v -0.5 10 -4.5
v -0.5 11 -4.5
v 0.5 1 -4.5
v 0.5 2 -4.5
v 0.5 3 -4.5
v 0.5 10 -4.5
v 0.5 11 -4.5
v 1.5 1 -4.5
v 1.5 2 -4.5
v 1.5 3 -4.5
v 1.5 6 -4.5
v 1.5 9 -4.5
v 1.5 10 -4.5
v 1.5 11 -4.5
v 2.5 1 -4.5
v 2.5 2 -4.5
v 2.5 3 -4.5
v 2.5 10 -4.5
v 2.5 11 -4.5
v 3.5 1 -4.5
v 3.5 2 -4.5
v 3.5 12 -4.5
v -2.5 3 -5.5
v -2.5 10 -5.5
v -1.5 3 -5.5
v -1.5 4 -5.5
v -1.5 9 -5.5
v -1.5 10 -5.5
v -0.5 3 -5.5
v -0.5 10 -5.5
v 0.5 3 -5.5
v 0.5 10 -5.5
v 1.5 3 -5.5
v 1.5 4 -5.5
v 1.5 9 -5.5
v 1.5 10 -5.5
v 2.5 3 -5.5
v 2.5 10 -5.5
v -3.5 1 -6.5
v -3.5 2 -6.5
v -3.5 3 -6.5
v -3.5 4 -6.5
v -3.5 5 -6.5
v -3.5 6 -6.5
v -3.5 12 -6.5
v -2.5 2 -6.5
v -2.5 3 -6.5
v -2.5 4 -6.5
v -2.5 5 -6.5
v -2.5 6 -6.5
v -2.5 10 -6.5
v -2.5 11 -6.5
v -1.5 2 -6.5
v -1.5 3 -6.5
v -1.5 4 -6.5
v -1.5 9 -6.5
v -1.5 10 -6.5
v -1.5 11 -6.5
v 1.5 2 -6.5
v 1.5 3 -6.5
v 1.5 4 -6.5
v 1.5 9 -6.5
v 1.5 10 -6.5
v 1.5 11 -6.5
v 2.5 2 -6.5
v 2.5 3 -6.5
v 2.5 4 -6.5
v 2.5 5 -6.5
v 2.5 6 -6.5
v 2.5 10 -6.5
v 2.5 11 -6.5
v 3.5 1 -6.5
v 3.5 2 -6.5
v 3.5 3 -6.5
v 3.5 4 -6.5
v 3.5 5 -6.5
v 3.5 6 -6.5
v 3.5 12 -6.5
v -3.5 1 -4.5
v -2.5 1 -4.5
v -1.5 1 -4.5
v -0.5 1 -4.5
v 0.5 1 -4.5
v 1.5 1 -4.5
v 2.5 1 -4.5
v 3.5 1 -4.5
v -2.5 1 -5.5
v -1.5 1 -5.5
v -0.5 1 -5.5
v 0.5 1 -5.5
v 1.5 1 -5.5
v 2.5 1 -5.5
v -3.5 1 -6.5
v 3.5 1 -6.5
v -1.5 4 -1.5
v 1.5 4 -1.5
v -1.5 4 -5.5
v 1.5 4 -5.5
v -2.5 10 -4.5
v -1.5 10 -4.5
v -0.5 10 -4.5
v 0.5 10 -4.5
v 1.5 10 -4.5
v 2.5 10 -4.5
v -2.5 10 -5.5
v -1.5 10 -5.5
v -0.5 10 -5.5
v 0.5 10 -5.5
v 1.5 10 -5.5
v 2.5 10 -5.5
v -2.5 3 -4.5
v -1.5 3 -4.5
v -0.5 3 -4.5
v 0.5 3 -4.5
v 1.5 3 -4.5
v 2.5 3 -4.5
v -2.5 3 -5.5
v -1.5 3 -5.5
v -0.5 3 -5.5
v 0.5 3 -5.5
v 1.5 3 -5.5
v 2.5 3 -5.5
v -1.5 6 -1.5
v 1.5 6 -1.5
v -1.5 6 -4.5
v 1.5 6 -4.5
v -1.5 9 -4.5
v 1.5 9 -4.5
v -1.5 9 -5.5
v 1.5 9 -5.5
v -3.5 12 -4.5
v 3.5 12 -4.5
v -3.5 12 -6.5
v 3.5 12 -6.5

# faces
f 3/2/1 2/2/1 1/2/1
f 4/2/1 2/2/1 3/2/1
f 5/3/1 4/3/1 3/3/1
f 6/3/1 4/3/1 5/3/1
f 7/3/1 5/3/1 3/3/1
f 7/2/1 6/2/1 5/2/1
f 8/2/1 6/2/1 7/2/1
f 9/3/1 7/3/1 3/3/1
f 9/3/1 8/3/1 7/3/1
f 10/3/1 8/3/1 9/3/1
f 11/3/1 9/3/1 3/3/1
f 11/2/1 10/2/1 9/2/1
f 12/2/1 10/2/1 11/2/1
f 13/3/1 11/3/1 3/3/1
f 13/3/1 12/3/1 11/3/1
f 14/3/1 12/3/1 13/3/1
f 17/5/1 16/5/1 15/5/1
f 18/5/1 16/5/1 17/5/1
f 19/5/1 16/5/1 18/5/1
f 20/5/1 16/5/1 19/5/1
f 23/3/1 22/3/1 21/3/1
f 24/3/1 22/3/1 23/3/1
f 25/3/2 26/3/2 27/3/2
f 27/3/2 26/3/2 28/3/2
f 29/5/2 30/5/2 31/5/2
f 31/5/2 30/5/2 32/5/2
f 32/5/2 30/5/2 33/5/2
f 33/5/2 30/5/2 34/5/2
f 35/2/2 36/2/2 37/2/2
f 37/2/2 36/2/2 38/2/2
f 37/3/2 38/3/2 39/3/2
f 39/3/2 38/3/2 40/3/2
f 37/3/2 39/3/2 41/3/2
f 39/2/2 40/2/2 41/2/2
f 41/2/2 40/2/2 42/2/2
f 37/3/2 41/3/2 43/3/2
f 41/3/2 42/3/2 43/3/2
f 43/3/2 42/3/2 44/3/2
f 37/3/2 43/3/2 45/3/2
f 43/2/2 44/2/2 45/2/2
f 45/2/2 44/2/2 46/2/2
f 37/3/2 45/3/2 47/3/2
f 45/3/2 46/3/2 47/3/2
f 47/3/2 46/3/2 48/3/2
f 51/5/3 50/5/3 49/5/3
f 52/5/3 50/5/3 51/5/3
f 56/2/3 54/2/3 53/2/3
f 57/3/3 55/3/3 54/3/3
f 57/2/3 54/2/3 56/2/3
f 58/3/3 55/3/3 57/3/3
f 59/3/3 55/3/3 58/3/3
f 60/3/3 55/3/3 59/3/3
f 61/3/3 57/3/3 56/3/3
f 62/2/3 58/2/3 57/2/3
f 62/3/3 57/3/3 61/3/3
f 63/2/3 58/2/3 62/2/3
f 66/2/3 60/2/3 59/2/3
f 67/3/3 55/3/3 60/3/3
f 67/2/3 60/2/3 66/2/3
f 68/2/3 62/2/3 61/2/3
f 69/3/3 63/3/3 62/3/3
f 69/2/3 62/2/3 68/2/3
f 70/3/3 63/3/3 69/3/3
f 71/3/3 67/3/3 66/3/3
f 72/3/3 55/3/3 67/3/3
f 72/3/3 67/3/3 71/3/3
f 73/3/3 69/3/3 68/3/3
f 74/2/3 70/2/3 69/2/3
f 74/3/3 69/3/3 73/3/3
f 75/2/3 70/2/3 74/2/3
f 76/2/3 72/2/3 71/2/3
f 77/3/3 55/3/3 72/3/3
f 77/2/3 72/2/3 76/2/3
f 78/2/3 74/2/3 73/2/3
f 79/3/3 75/3/3 74/3/3
f 79/2/3 74/2/3 78/2/3
f 80/3/3 75/3/3 79/3/3
f 81/5/3 65/5/3 64/5/3
f 82/5/3 65/5/3 81/5/3
f 83/3/3 77/3/3 76/3/3
f 84/3/3 55/3/3 77/3/3
f 84/3/3 77/3/3 83/3/3
f 85/3/3 79/3/3 78/3/3
f 86/2/3 80/2/3 79/2/3
f 86/3/3 79/3/3 85/3/3
f 87/2/3 80/2/3 86/2/3
f 88/2/3 84/2/3 83/2/3
f 89/3/3 55/3/3 84/3/3
f 89/2/3 84/2/3 88/2/3
f 90/2/3 86/2/3 85/2/3
f 91/3/3 88/3/3 87/3/3
f 91/2/3 86/2/3 90/2/3
f 91/3/3 87/3/3 86/3/3
f 91/3/3 89/3/3 88/3/3
f 92/3/3 55/3/3 89/3/3
f 92/3/3 89/3/3 91/3/3
f 95/4/3 94/4/3 93/4/3
f 96/4/3 94/4/3 95/4/3
f 97/4/3 94/4/3 96/4/3
f 98/4/3 94/4/3 97/4/3
f 99/4/3 96/4/3 95/4/3
f 100/4/3 98/4/3 97/4/3
f 101/4/3 96/4/3 99/4/3
f 102/4/3 100/4/3 97/4/3
f 103/4/3 96/4/3 101/4/3
f 104/4/3 96/4/3 103/4/3
f 105/4/3 102/4/3 97/4/3
f 106/4/3 102/4/3 105/4/3
f 107/4/3 104/4/3 103/4/3
f 107/4/3 105/4/3 104/4/3
f 107/4/3 106/4/3 105/4/3
f 108/4/3 106/4/3 107/4/3
f 109/2/4 110/2/4 116/2/4
f 110/3/4 111/3/4 116/3/4
f 111/2/4 112/2/4 117/2/4
f 116/3/4 111/3/4 117/3/4
f 112/3/4 113/3/4 118/3/4
f 117/2/4 112/2/4 118/2/4
f 113/2/4 114/2/4 119/2/4
f 118/3/4 113/3/4 119/3/4
f 114/3/4 115/3/4 120/3/4
f 119/2/4 114/2/4 120/2/4
f 120/3/4 115/3/4 121/3/4
f 121/3/4 115/3/4 122/3/4
f 109/2/4 116/2/4 123/2/4
f 116/1/4 117/1/4 123/1/4
f 118/4/4 119/4/4 124/4/4
f 123/1/4 117/1/4 124/1/4
f 117/4/4 118/4/4 124/4/4
f 120/4/4 121/4/4 124/4/4
f 119/4/4 120/4/4 124/4/4
f 124/4/4 121/4/4 125/4/4
f 125/4/4 121/4/4 126/4/4
f 121/1/4 122/1/4 127/1/4
f 126/4/4 121/4/4 127/4/4
f 122/3/4 115/3/4 128/3/4
f 127/1/4 122/1/4 128/1/4
f 109/2/4 123/2/4 129/2/4
f 123/4/4 124/4/4 129/4/4
f 124/4/4 125/4/4 129/4/4
f 129/4/4 125/4/4 130/4/4
f 125/1/4 126/1/4 131/1/4
f 130/4/4 125/4/4 131/4/4
f 126/4/4 127/4/4 132/4/4
f 131/1/4 126/1/4 132/1/4
f 127/4/4 128/4/4 132/4/4
f 132/4/4 128/4/4 133/4/4
f 128/3/4 115/3/4 134/3/4
f 133/4/4 128/4/4 134/4/4
f 129/1/4 130/1/4 135/1/4
f 109/2/4 129/2/4 135/2/4
f 132/4/4 133/4/4 136/4/4
f 135/1/4 130/1/4 136/1/4
f 130/4/4 131/4/4 136/4/4
f 131/4/4 132/4/4 136/4/4
f 136/4/4 133/4/4 137/4/4
f 137/4/4 133/4/4 138/4/4
f 138/4/4 133/4/4 139/4/4
f 133/1/4 134/1/4 140/1/4
f 139/4/4 133/4/4 140/4/4
f 134/3/4 115/3/4 141/3/4
f 140/1/4 134/1/4 141/1/4
f 109/2/4 135/2/4 142/2/4
f 135/3/4 136/3/4 143/3/4
f 142/2/4 135/2/4 143/2/4
f 136/2/4 137/2/4 144/2/4
f 143/3/4 136/3/4 144/3/4
f 137/3/4 138/3/4 145/3/4
f 144/2/4 137/2/4 145/2/4
f 138/2/4 139/2/4 146/2/4
f 145/3/4 138/3/4 146/3/4
f 139/3/4 140/3/4 147/3/4
f 146/2/4 139/2/4 147/2/4
f 140/3/4 141/3/4 147/3/4
f 141/3/4 115/3/4 148/3/4
f 147/3/4 141/3/4 148/3/4
f 157/2/5 150/2/5 149/2/5
f 157/3/5 151/3/5 150/3/5
f 158/2/5 152/2/5 151/2/5
f 158/3/5 151/3/5 157/3/5
f 159/3/5 153/3/5 152/3/5
f 159/2/5 152/2/5 158/2/5
f 160/2/5 154/2/5 153/2/5
f 160/3/5 153/3/5 159/3/5
f 161/3/5 155/3/5 154/3/5
f 161/2/5 154/2/5 160/2/5
f 162/2/5 156/2/5 155/2/5
f 162/3/5 155/3/5 161/3/5
f 163/2/5 161/2/5 160/2/5
f 163/2/5 160/2/5 159/2/5
f 163/2/5 162/2/5 161/2/5
f 163/2/5 159/2/5 158/2/5
f 163/2/5 158/2/5 157/2/5
f 163/2/5 157/2/5 149/2/5
f 164/2/5 156/2/5 162/2/5
f 164/2/5 162/2/5 163/2/5
f 167/5/5 166/5/5 165/5/5
f 168/5/5 166/5/5 167/5/5
f 175/2/5 170/2/5 169/2/5
f 176/3/5 171/3/5 170/3/5
f 176/2/5 170/2/5 175/2/5
f 177/2/5 172/2/5 171/2/5
f 177/3/5 171/3/5 176/3/5
f 178/3/5 173/3/5 172/3/5
f 178/2/5 172/2/5 177/2/5
f 179/2/5 174/2/5 173/2/5
f 179/3/5 173/3/5 178/3/5
f 180/2/5 174/2/5 179/2/5
f 181/2/6 182/2/6 187/2/6
f 182/3/6 183/3/6 188/3/6
f 187/2/6 182/2/6 188/2/6
f 183/2/6 184/2/6 189/2/6
f 188/3/6 183/3/6 189/3/6
f 184/3/6 185/3/6 190/3/6
f 189/2/6 184/2/6 190/2/6
f 185/2/6 186/2/6 191/2/6
f 190/3/6 185/3/6 191/3/6
f 191/2/6 186/2/6 192/2/6
f 193/5/6 194/5/6 195/5/6
f 195/5/6 194/5/6 196/5/6
f 197/5/6 198/5/6 199/5/6
f 199/5/6 198/5/6 200/5/6
f 201/3/6 202/3/6 203/3/6
f 203/3/6 202/3/6 204/3/6
