# MagicaVoxel @ Ephtracy

# material
mtllib Needle.mtl
usemtl palette

# normals
vn -1 0 0
vn 1 0 0
vn 0 0 1
vn 0 0 -1
vn 0 -1 0
vn 0 1 0

# texcoords
vt 0.146484 0.5
vt 0.177734 0.5
vt 0.181641 0.5
vt 0.216797 0.5
vt 0.251953 0.5
vt 0.263672 0.5
vt 0.310547 0.5
vt 0.416016 0.5
vt 0.681641 0.5
vt 0.685547 0.5
vt 0.912109 0.5
vt 0.935547 0.5

# verts
v -2 6 2
v -2 6 1
v -2 6 -0
v -2 6 -1
v -2 7 2
v -2 7 1
v -2 7 -0
v -2 7 -1
v -2 8 2
v -2 8 1
v -2 8 -0
v -2 9 2
v -2 9 1
v -2 9 -0
v -2 10 2
v -2 10 1
v -2 10 -0
v -2 10 -1
v -2 11 1
v -2 11 -0
v -2 12 2
v -2 12 1
v -2 12 -0
v -2 12 -1
v -2 13 2
v -2 13 1
v -2 13 -0
v -2 13 -1
v -2 14 2
v -2 14 -0
v -2 14 -1
v -2 15 2
v -2 15 -0
v -2 15 -1
v -2 17 2
v -2 17 1
v -2 17 -0
v -2 17 -1
v -2 18 2
v -2 18 1
v -2 18 -0
v -2 18 -1
v -1 0 1
v -1 0 -0
v -1 1 1
v -1 1 -0
v -1 2 1
v -1 2 -0
v -1 3 1
v -1 3 -0
v -1 4 1
v -1 4 -0
v -1 5 1
v -1 5 -0
v -1 6 1
v -1 6 -0
v -1 13 1
v -1 13 -0
v -1 14 1
v -1 14 -0
v -1 15 1
v -1 15 -0
v -1 16 1
v -1 16 -0
v -1 17 1
v -1 17 -0
v 0 0 1
v 0 0 -0
v 0 1 1
v 0 1 -0
v 0 2 1
v 0 2 -0
v 0 3 1
v 0 3 -0
v 0 4 1
v 0 4 -0
v 0 5 1
v 0 5 -0
v 0 6 1
v 0 6 -0
v 0 13 1
v 0 13 -0
v 0 14 1
v 0 14 -0
v 0 15 1
v 0 15 -0
v 0 16 1
v 0 16 -0
v 0 17 1
v 0 17 -0
v 1 6 2
v 1 6 -1
v 1 7 2
v 1 7 1
v 1 7 -0
v 1 7 -1
v 1 8 2
v 1 8 1
v 1 8 -0
v 1 8 -1
v 1 9 2
v 1 9 1
v 1 9 -0
v 1 9 -1
v 1 10 2
v 1 10 1
v 1 10 -0
v 1 10 -1
v 1 11 2
v 1 11 1
v 1 11 -0
v 1 11 -1
v 1 12 2
v 1 12 1
v 1 12 -0
v 1 12 -1
v 1 13 2
v 1 13 -1
v 1 14 2
v 1 14 1
v 1 14 -1
v 1 15 2
v 1 15 1
v 1 15 -1
v 1 17 2
v 1 17 1
v 1 17 -0
v 1 17 -1
v 1 18 2
v 1 18 1
v 1 18 -0
v 1 18 -1
v -2 6 2
v -2 7 2
v -2 8 2
v -2 9 2
v -2 10 2
v -2 12 2
v -2 13 2
v -2 14 2
v -2 15 2
v -2 17 2
v -2 18 2
v -1 6 2
v -1 7 2
v -1 8 2
v -1 9 2
v -1 10 2
v -1 11 2
v -1 12 2
v -1 14 2
v -1 15 2
v 0 7 2
v 0 8 2
v 0 9 2
v 0 10 2
v 0 11 2
v 0 12 2
v 0 17 2
v 0 18 2
v 1 6 2
v 1 7 2
v 1 8 2
v 1 9 2
v 1 10 2
v 1 11 2
v 1 12 2
v 1 13 2
v 1 14 2
v 1 15 2
v 1 17 2
v 1 18 2
v -1 0 1
v -1 1 1
v -1 2 1
v -1 3 1
v -1 4 1
v -1 5 1
v -1 6 1
v -1 13 1
v -1 14 1
v -1 15 1
v -1 16 1
v -1 17 1
v 0 0 1
v 0 1 1
v 0 2 1
v 0 3 1
v 0 4 1
v 0 5 1
v 0 6 1
v 0 13 1
v 0 14 1
v 0 15 1
v 0 16 1
v 0 17 1
v -1 0 -0
v -1 1 -0
v -1 2 -0
v -1 3 -0
v -1 4 -0
v -1 5 -0
v -1 6 -0
v -1 13 -0
v -1 14 -0
v -1 15 -0
v -1 16 -0
v -1 17 -0
v 0 0 -0
v 0 1 -0
v 0 2 -0
v 0 3 -0
v 0 4 -0
v 0 5 -0
v 0 6 -0
v 0 13 -0
v 0 14 -0
v 0 15 -0
v 0 16 -0
v 0 17 -0
v -2 6 -1
v -2 7 -1
v -2 10 -1
v -2 12 -1
v -2 13 -1
v -2 14 -1
v -2 15 -1
v -2 17 -1
v -2 18 -1
v -1 6 -1
v -1 7 -1
v -1 9 -1
v -1 10 -1
v -1 11 -1
v -1 12 -1
v -1 14 -1
v -1 15 -1
v 0 7 -1
v 0 8 -1
v 0 9 -1
v 0 10 -1
v 0 11 -1
v 0 12 -1
v 0 17 -1
v 0 18 -1
v 1 6 -1
v 1 7 -1
v 1 8 -1
v 1 9 -1
v 1 10 -1
v 1 11 -1
v 1 12 -1
v 1 13 -1
v 1 14 -1
v 1 15 -1
v 1 17 -1
v 1 18 -1
v -1 0 1
v 0 0 1
v -1 0 -0
v 0 0 -0
v -1 2 1
v 0 2 1
v -1 2 -0
v 0 2 -0
v -2 6 2
v -1 6 2
v 1 6 2
v -2 6 1
v -1 6 1
v 0 6 1
v -2 6 -0
v -1 6 -0
v 0 6 -0
v -2 6 -1
v -1 6 -1
v 1 6 -1
v -2 14 2
v -1 14 2
v 1 14 2
v -1 14 1
v 0 14 1
v 1 14 1
v -2 14 -0
v -1 14 -0
v 0 14 -0
v -2 14 -1
v -1 14 -1
v 1 14 -1
v -2 17 2
v 0 17 2
v 1 17 2
v -2 17 1
v -1 17 1
v 0 17 1
v 1 17 1
v -2 17 -0
v -1 17 -0
v 0 17 -0
v 1 17 -0
v -2 17 -1
v 0 17 -1
v 1 17 -1
v -1 1 1
v 0 1 1
v -1 1 -0
v 0 1 -0
v -2 13 2
v 1 13 2
v -2 13 1
v -1 13 1
v 0 13 1
v -2 13 -0
v -1 13 -0
v 0 13 -0
v -2 13 -1
v 1 13 -1
v -2 15 2
v -1 15 2
v 1 15 2
v -1 15 1
v 0 15 1
v 1 15 1
v -2 15 -0
v -1 15 -0
v 0 15 -0
v -2 15 -1
v -1 15 -1
v 1 15 -1
v -2 18 2
v 0 18 2
v 1 18 2
v -2 18 1
v -1 18 1
v 0 18 1
v 1 18 1
v -2 18 -0
v -1 18 -0
v 0 18 -0
v 1 18 -0
v -2 18 -1
v 0 18 -1
v 1 18 -1

# faces
f 5/3/1 2/3/1 1/3/1
f 6/2/1 3/2/1 2/2/1
f 6/3/1 2/3/1 5/3/1
f 7/3/1 4/3/1 3/3/1
f 7/2/1 3/2/1 6/2/1
f 8/3/1 4/3/1 7/3/1
f 9/2/1 6/2/1 5/2/1
f 10/3/1 7/3/1 6/3/1
f 10/2/1 6/2/1 9/2/1
f 11/2/1 8/2/1 7/2/1
f 11/3/1 7/3/1 10/3/1
f 12/1/1 10/1/1 9/1/1
f 13/2/1 11/2/1 10/2/1
f 13/1/1 10/1/1 12/1/1
f 14/2/1 8/2/1 11/2/1
f 14/2/1 11/2/1 13/2/1
f 15/2/1 13/2/1 12/2/1
f 16/1/1 14/1/1 13/1/1
f 16/2/1 13/2/1 15/2/1
f 17/2/1 8/2/1 14/2/1
f 17/1/1 14/1/1 16/1/1
f 18/2/1 8/2/1 17/2/1
f 19/1/1 16/1/1 15/1/1
f 19/2/1 17/2/1 16/2/1
f 20/3/1 18/3/1 17/3/1
f 20/2/1 17/2/1 19/2/1
f 21/1/1 19/1/1 15/1/1
f 22/10/1 20/10/1 19/10/1
f 22/1/1 19/1/1 21/1/1
f 23/3/1 18/3/1 20/3/1
f 23/10/1 20/10/1 22/10/1
f 24/3/1 18/3/1 23/3/1
f 25/10/1 22/10/1 21/10/1
f 26/1/1 23/1/1 22/1/1
f 26/10/1 22/10/1 25/10/1
f 27/10/1 24/10/1 23/10/1
f 27/1/1 23/1/1 26/1/1
f 28/10/1 24/10/1 27/10/1
f 32/12/1 30/12/1 29/12/1
f 33/3/1 31/3/1 30/3/1
f 33/12/1 30/12/1 32/12/1
f 34/3/1 31/3/1 33/3/1
f 39/8/1 36/8/1 35/8/1
f 40/11/1 37/11/1 36/11/1
f 40/8/1 36/8/1 39/8/1
f 41/8/1 38/8/1 37/8/1
f 41/11/1 37/11/1 40/11/1
f 42/8/1 38/8/1 41/8/1
f 45/1/1 44/1/1 43/1/1
f 46/1/1 44/1/1 45/1/1
f 49/9/1 48/9/1 47/9/1
f 50/9/1 48/9/1 49/9/1
f 51/4/1 50/4/1 49/4/1
f 52/4/1 50/4/1 51/4/1
f 53/5/1 52/5/1 51/5/1
f 54/5/1 52/5/1 53/5/1
f 55/9/1 54/9/1 53/9/1
f 56/9/1 54/9/1 55/9/1
f 59/10/1 58/10/1 57/10/1
f 60/10/1 58/10/1 59/10/1
f 63/11/1 62/11/1 61/11/1
f 64/11/1 62/11/1 63/11/1
f 65/8/1 64/8/1 63/8/1
f 66/8/1 64/8/1 65/8/1
f 67/1/2 68/1/2 69/1/2
f 69/1/2 68/1/2 70/1/2
f 71/9/2 72/9/2 73/9/2
f 73/9/2 72/9/2 74/9/2
f 73/4/2 74/4/2 75/4/2
f 75/4/2 74/4/2 76/4/2
f 75/5/2 76/5/2 77/5/2
f 77/5/2 76/5/2 78/5/2
f 77/9/2 78/9/2 79/9/2
f 79/9/2 78/9/2 80/9/2
f 81/10/2 82/10/2 83/10/2
f 83/10/2 82/10/2 84/10/2
f 85/11/2 86/11/2 87/11/2
f 87/11/2 86/11/2 88/11/2
f 87/8/2 88/8/2 89/8/2
f 89/8/2 88/8/2 90/8/2
f 91/2/2 92/2/2 93/2/2
f 93/2/2 92/2/2 94/2/2
f 94/2/2 92/2/2 95/2/2
f 95/2/2 92/2/2 96/2/2
f 93/3/2 94/3/2 97/3/2
f 94/2/2 95/2/2 98/2/2
f 97/3/2 94/3/2 98/3/2
f 95/3/2 96/3/2 99/3/2
f 98/2/2 95/2/2 99/2/2
f 99/3/2 96/3/2 100/3/2
f 97/2/2 98/2/2 101/2/2
f 98/2/2 99/2/2 101/2/2
f 101/2/2 99/2/2 102/2/2
f 99/1/2 100/1/2 103/1/2
f 102/2/2 99/2/2 103/2/2
f 103/1/2 100/1/2 104/1/2
f 101/3/2 102/3/2 105/3/2
f 102/2/2 103/2/2 106/2/2
f 105/3/2 102/3/2 106/3/2
f 103/2/2 104/2/2 106/2/2
f 106/2/2 104/2/2 107/2/2
f 107/2/2 104/2/2 108/2/2
f 105/1/2 106/1/2 109/1/2
f 106/2/2 107/2/2 110/2/2
f 109/1/2 106/1/2 110/1/2
f 107/6/2 108/6/2 111/6/2
f 110/2/2 107/2/2 111/2/2
f 111/6/2 108/6/2 112/6/2
f 109/6/2 110/6/2 113/6/2
f 110/10/2 111/10/2 114/10/2
f 113/6/2 110/6/2 114/6/2
f 111/3/2 112/3/2 115/3/2
f 114/10/2 111/10/2 115/10/2
f 115/3/2 112/3/2 116/3/2
f 113/10/2 114/10/2 117/10/2
f 114/10/2 115/10/2 117/10/2
f 115/10/2 116/10/2 117/10/2
f 117/10/2 116/10/2 118/10/2
f 119/3/2 120/3/2 122/3/2
f 120/12/2 121/12/2 123/12/2
f 122/3/2 120/3/2 123/3/2
f 123/12/2 121/12/2 124/12/2
f 125/11/2 126/11/2 129/11/2
f 126/8/2 127/8/2 130/8/2
f 129/11/2 126/11/2 130/11/2
f 127/11/2 128/11/2 131/11/2
f 130/8/2 127/8/2 131/8/2
f 131/11/2 128/11/2 132/11/2
f 144/3/3 134/3/3 133/3/3
f 145/2/3 135/2/3 134/2/3
f 145/3/3 134/3/3 144/3/3
f 146/1/3 136/1/3 135/1/3
f 146/2/3 135/2/3 145/2/3
f 147/2/3 137/2/3 136/2/3
f 147/1/3 136/1/3 146/1/3
f 148/1/3 138/1/3 137/1/3
f 148/2/3 137/2/3 147/2/3
f 149/1/3 138/1/3 148/1/3
f 150/10/3 139/10/3 138/10/3
f 150/1/3 138/1/3 149/1/3
f 151/12/3 141/12/3 140/12/3
f 152/12/3 141/12/3 151/12/3
f 153/2/3 145/2/3 144/2/3
f 153/2/3 146/2/3 145/2/3
f 153/2/3 147/2/3 146/2/3
f 153/2/3 149/2/3 148/2/3
f 153/2/3 148/2/3 147/2/3
f 154/2/3 149/2/3 153/2/3
f 155/2/3 149/2/3 154/2/3
f 156/2/3 149/2/3 155/2/3
f 157/10/3 150/10/3 149/10/3
f 157/2/3 149/2/3 156/2/3
f 158/10/3 139/10/3 150/10/3
f 158/10/3 150/10/3 157/10/3
f 159/8/3 143/8/3 142/8/3
f 160/8/3 143/8/3 159/8/3
f 161/2/3 153/2/3 144/2/3
f 162/3/3 154/3/3 153/3/3
f 162/2/3 153/2/3 161/2/3
f 163/2/3 155/2/3 154/2/3
f 163/3/3 154/3/3 162/3/3
f 164/3/3 156/3/3 155/3/3
f 164/2/3 155/2/3 163/2/3
f 165/1/3 157/1/3 156/1/3
f 165/3/3 156/3/3 164/3/3
f 166/6/3 158/6/3 157/6/3
f 166/1/3 157/1/3 165/1/3
f 167/10/3 139/10/3 158/10/3
f 167/6/3 158/6/3 166/6/3
f 168/10/3 139/10/3 167/10/3
f 169/3/3 152/3/3 151/3/3
f 170/3/3 152/3/3 169/3/3
f 171/11/3 160/11/3 159/11/3
f 172/11/3 160/11/3 171/11/3
f 185/1/3 174/1/3 173/1/3
f 186/1/3 174/1/3 185/1/3
f 187/9/3 176/9/3 175/9/3
f 188/4/3 177/4/3 176/4/3
f 188/9/3 176/9/3 187/9/3
f 189/5/3 178/5/3 177/5/3
f 189/4/3 177/4/3 188/4/3
f 190/9/3 179/9/3 178/9/3
f 190/5/3 178/5/3 189/5/3
f 191/9/3 179/9/3 190/9/3
f 192/10/3 181/10/3 180/10/3
f 193/10/3 181/10/3 192/10/3
f 194/11/3 183/11/3 182/11/3
f 195/8/3 184/8/3 183/8/3
f 195/11/3 183/11/3 194/11/3
f 196/8/3 184/8/3 195/8/3
f 197/1/4 198/1/4 209/1/4
f 209/1/4 198/1/4 210/1/4
f 199/9/4 200/9/4 211/9/4
f 200/4/4 201/4/4 212/4/4
f 211/9/4 200/9/4 212/9/4
f 201/5/4 202/5/4 213/5/4
f 212/4/4 201/4/4 213/4/4
f 202/9/4 203/9/4 214/9/4
f 213/5/4 202/5/4 214/5/4
f 214/9/4 203/9/4 215/9/4
f 204/10/4 205/10/4 216/10/4
f 216/10/4 205/10/4 217/10/4
f 206/11/4 207/11/4 218/11/4
f 207/8/4 208/8/4 219/8/4
f 218/11/4 207/11/4 219/11/4
f 219/8/4 208/8/4 220/8/4
f 221/3/4 222/3/4 230/3/4
f 222/2/4 223/2/4 231/2/4
f 230/3/4 222/3/4 231/3/4
f 231/2/4 223/2/4 232/2/4
f 223/3/4 224/3/4 233/3/4
f 232/2/4 223/2/4 233/2/4
f 233/3/4 224/3/4 234/3/4
f 224/10/4 225/10/4 235/10/4
f 234/3/4 224/3/4 235/3/4
f 226/3/4 227/3/4 236/3/4
f 236/3/4 227/3/4 237/3/4
f 231/2/4 232/2/4 238/2/4
f 230/2/4 231/2/4 238/2/4
f 238/2/4 232/2/4 239/2/4
f 232/1/4 233/1/4 240/1/4
f 239/2/4 232/2/4 240/2/4
f 233/2/4 234/2/4 241/2/4
f 240/1/4 233/1/4 241/1/4
f 234/10/4 235/10/4 242/10/4
f 241/2/4 234/2/4 242/2/4
f 235/10/4 225/10/4 243/10/4
f 242/10/4 235/10/4 243/10/4
f 228/8/4 229/8/4 244/8/4
f 244/8/4 229/8/4 245/8/4
f 230/2/4 238/2/4 246/2/4
f 238/3/4 239/3/4 247/3/4
f 246/2/4 238/2/4 247/2/4
f 239/1/4 240/1/4 248/1/4
f 247/3/4 239/3/4 248/3/4
f 240/2/4 241/2/4 249/2/4
f 248/1/4 240/1/4 249/1/4
f 241/6/4 242/6/4 250/6/4
f 249/2/4 241/2/4 250/2/4
f 242/3/4 243/3/4 251/3/4
f 250/6/4 242/6/4 251/6/4
f 243/10/4 225/10/4 252/10/4
f 251/3/4 243/3/4 252/3/4
f 252/10/4 225/10/4 253/10/4
f 236/12/4 237/12/4 254/12/4
f 254/12/4 237/12/4 255/12/4
f 244/11/4 245/11/4 256/11/4
f 256/11/4 245/11/4 257/11/4
f 260/1/5 259/1/5 258/1/5
f 261/1/5 259/1/5 260/1/5
f 264/9/5 263/9/5 262/9/5
f 265/9/5 263/9/5 264/9/5
f 269/3/5 267/3/5 266/3/5
f 270/2/5 268/2/5 267/2/5
f 270/3/5 267/3/5 269/3/5
f 271/2/5 268/2/5 270/2/5
f 272/2/5 270/2/5 269/2/5
f 273/2/5 270/2/5 272/2/5
f 274/2/5 268/2/5 271/2/5
f 275/3/5 273/3/5 272/3/5
f 276/2/5 274/2/5 273/2/5
f 276/3/5 273/3/5 275/3/5
f 277/2/5 268/2/5 274/2/5
f 277/2/5 274/2/5 276/2/5
f 281/12/5 279/12/5 278/12/5
f 281/3/5 280/3/5 279/3/5
f 282/3/5 280/3/5 281/3/5
f 283/3/5 280/3/5 282/3/5
f 284/12/5 281/12/5 278/12/5
f 285/12/5 281/12/5 284/12/5
f 286/12/5 283/12/5 282/12/5
f 287/3/5 285/3/5 284/3/5
f 288/12/5 286/12/5 285/12/5
f 288/3/5 285/3/5 287/3/5
f 289/12/5 283/12/5 286/12/5
f 289/12/5 286/12/5 288/12/5
f 293/8/5 291/8/5 290/8/5
f 294/8/5 291/8/5 293/8/5
f 295/11/5 292/11/5 291/11/5
f 295/8/5 291/8/5 294/8/5
f 296/11/5 292/11/5 295/11/5
f 297/11/5 294/11/5 293/11/5
f 298/11/5 294/11/5 297/11/5
f 299/8/5 296/8/5 295/8/5
f 300/8/5 296/8/5 299/8/5
f 301/8/5 298/8/5 297/8/5
f 301/8/5 299/8/5 298/8/5
f 302/11/5 300/11/5 299/11/5
f 302/8/5 299/8/5 301/8/5
f 303/11/5 300/11/5 302/11/5
f 304/1/6 305/1/6 306/1/6
f 306/1/6 305/1/6 307/1/6
f 308/10/6 309/10/6 310/10/6
f 310/10/6 309/10/6 311/10/6
f 311/10/6 309/10/6 312/10/6
f 310/1/6 311/1/6 313/1/6
f 313/1/6 311/1/6 314/1/6
f 312/10/6 309/10/6 315/10/6
f 313/10/6 314/10/6 316/10/6
f 314/10/6 315/10/6 316/10/6
f 315/10/6 309/10/6 317/10/6
f 316/10/6 315/10/6 317/10/6
f 318/12/6 319/12/6 321/12/6
f 319/3/6 320/3/6 321/3/6
f 321/3/6 320/3/6 322/3/6
f 322/3/6 320/3/6 323/3/6
f 318/12/6 321/12/6 324/12/6
f 324/12/6 321/12/6 325/12/6
f 322/12/6 323/12/6 326/12/6
f 324/3/6 325/3/6 327/3/6
f 325/12/6 326/12/6 328/12/6
f 327/3/6 325/3/6 328/3/6
f 326/12/6 323/12/6 329/12/6
f 328/12/6 326/12/6 329/12/6
f 330/8/6 331/8/6 333/8/6
f 333/8/6 331/8/6 334/8/6
f 331/11/6 332/11/6 335/11/6
f 334/8/6 331/8/6 335/8/6
f 335/11/6 332/11/6 336/11/6
f 333/11/6 334/11/6 337/11/6
f 334/8/6 335/8/6 338/8/6
f 337/11/6 334/11/6 338/11/6
f 335/8/6 336/8/6 338/8/6
f 338/8/6 336/8/6 339/8/6
f 339/8/6 336/8/6 340/8/6
f 337/8/6 338/8/6 341/8/6
f 338/8/6 339/8/6 341/8/6
f 339/11/6 340/11/6 342/11/6
f 341/8/6 339/8/6 342/8/6
f 342/11/6 340/11/6 343/11/6
