# MagicaVoxel @ Ephtracy

# material
mtllib Sleeping_Bag.mtl
usemtl palette

# normals
vn -1 0 0
vn 1 0 0
vn 0 0 1
vn 0 0 -1
vn 0 -1 0
vn 0 1 0

# texcoords
vt 0.357422 0.5
vt 0.412109 0.5
vt 0.416016 0.5
vt 0.693359 0.5
vt 0.705078 0.5
vt 0.720703 0.5
vt 0.724609 0.5
vt 0.736328 0.5

# verts
v -15 0 5
v -15 0 -7
v -15 1 5
v -15 1 -7
v -15 2 5
v -15 2 -7
v -14 0 6
v -14 0 5
v -14 0 -7
v -14 0 -8
v -14 1 6
v -14 1 5
v -14 1 -7
v -14 1 -8
v -14 2 6
v -14 2 5
v -14 2 4
v -14 2 -3
v -14 2 -4
v -14 2 -7
v -14 2 -8
v -14 3 5
v -14 3 4
v -14 3 -3
v -14 3 -4
v -14 3 -7
v -12 0 7
v -12 0 6
v -12 1 7
v -12 1 6
v -12 2 7
v -12 2 6
v -12 2 5
v -12 3 6
v -12 3 5
v -10 0 8
v -10 0 7
v -10 1 8
v -10 1 7
v -10 2 8
v -10 2 7
v -10 2 6
v -10 3 7
v -10 3 6
v 6 0 -6
v 6 0 -7
v 6 1 6
v 6 1 5
v 6 1 4
v 6 1 3
v 6 1 -5
v 6 1 -6
v 6 1 -7
v 6 2 6
v 6 2 5
v 6 2 4
v 6 2 3
v 6 2 2
v 6 2 1
v 6 2 -0
v 6 2 -1
v 6 2 -2
v 6 2 -5
v 6 2 -6
v 6 3 4
v 6 3 2
v 6 3 1
v 6 3 -0
v 6 3 -1
v 6 3 -2
v 6 3 -5
v 7 2 5
v 7 2 4
v 7 2 -5
v 7 2 -6
v 7 3 5
v 7 3 4
v 7 3 -5
v 7 3 -6
v -12 0 -7
v -12 0 -8
v -12 1 -7
v -12 1 -8
v -12 2 -6
v -12 2 -7
v -12 2 -8
v -12 3 -6
v -12 3 -7
v -10 0 -6
v -10 0 -7
v -10 1 -6
v -10 1 -7
v -10 2 -5
v -10 2 -6
v -10 2 -7
v -10 3 -5
v -10 3 -6
v 5 1 8
v 5 1 7
v 5 1 -6
v 5 2 8
v 5 2 7
v 5 2 5
v 5 2 4
v 5 2 2
v 5 2 1
v 5 2 -1
v 5 2 -2
v 5 2 -4
v 5 2 -5
v 5 2 -6
v 5 3 7
v 5 3 5
v 5 3 4
v 5 3 2
v 5 3 1
v 5 3 -1
v 5 3 -2
v 5 3 -4
v 5 3 -5
v 6 0 8
v 6 0 7
v 6 1 8
v 6 1 7
v 10 2 5
v 10 2 4
v 10 2 -5
v 10 2 -6
v 10 3 5
v 10 3 4
v 10 3 -5
v 10 3 -6
v 11 0 7
v 11 0 6
v 11 0 -6
v 11 0 -7
v 11 1 7
v 11 1 6
v 11 1 5
v 11 1 4
v 11 1 3
v 11 1 -5
v 11 1 -6
v 11 1 -7
v 11 2 6
v 11 2 5
v 11 2 4
v 11 2 3
v 11 2 -0
v 11 2 -2
v 11 2 -3
v 11 2 -4
v 11 2 -5
v 11 2 -6
v 11 3 4
v 11 3 3
v 11 3 -0
v 11 3 -2
v 11 3 -3
v 11 3 -4
v 11 3 -5
v 12 0 6
v 12 0 -6
v 12 1 6
v 12 1 -6
v -10 0 8
v -10 1 8
v -10 2 8
v -7 1 8
v -7 2 8
v -6 1 8
v -6 2 8
v 1 1 8
v 1 2 8
v 2 1 8
v 2 2 8
v 4 1 8
v 4 2 8
v 5 0 8
v 5 1 8
v 5 2 8
v 6 0 8
v 6 1 8
v -12 0 7
v -12 1 7
v -12 2 7
v -10 0 7
v -10 1 7
v -10 2 7
v -10 3 7
v -9 2 7
v -9 3 7
v -7 2 7
v -6 2 7
v -5 2 7
v -5 3 7
v -3 2 7
v -3 3 7
v 1 2 7
v 1 3 7
v 2 2 7
v 2 3 7
v 4 2 7
v 5 2 7
v 5 3 7
v 6 0 7
v 6 1 7
v 11 0 7
v 11 1 7
v -14 0 6
v -14 1 6
v -14 2 6
v -12 0 6
v -12 1 6
v -12 2 6
v -12 3 6
v -10 2 6
v -10 3 6
v 6 1 6
v 6 2 6
v 7 1 6
v 7 2 6
v 11 0 6
v 11 1 6
v 11 2 6
v 12 0 6
v 12 1 6
v -15 0 5
v -15 1 5
v -15 2 5
v -14 0 5
v -14 1 5
v -14 2 5
v -14 3 5
v -13 2 5
v -13 3 5
v -12 2 5
v -12 3 5
v 7 2 5
v 7 3 5
v 8 2 5
v 8 3 5
v 9 2 5
v 9 3 5
v 10 2 5
v 10 3 5
v 6 2 4
v 6 3 4
v 7 2 4
v 7 3 4
v 10 2 4
v 10 3 4
v 11 2 4
v 11 3 4
v -10 2 -5
v -10 3 -5
v -8 2 -5
v -7 2 -5
v -6 2 -5
v -5 2 -5
v -5 3 -5
v -4 2 -5
v -4 3 -5
v 1 2 -5
v 1 3 -5
v 2 2 -5
v 2 3 -5
v 3 2 -5
v 3 3 -5
v 5 2 -5
v 5 3 -5
v 6 2 -5
v 6 3 -5
v 7 2 -5
v 7 3 -5
v 10 2 -5
v 10 3 -5
v 11 2 -5
v 11 3 -5
v -12 2 -6
v -12 3 -6
v -10 0 -6
v -10 1 -6
v -10 2 -6
v -10 3 -6
v -8 1 -6
v -8 2 -6
v -7 1 -6
v -7 2 -6
v -6 1 -6
v -6 2 -6
v -5 1 -6
v -5 2 -6
v 1 1 -6
v 1 2 -6
v 2 1 -6
v 2 2 -6
v 5 0 -6
v 5 1 -6
v 5 2 -6
v 6 0 -6
v 6 1 -6
v 6 2 -6
v 7 1 -6
v 7 2 -6
v 7 3 -6
v 8 1 -6
v 8 2 -6
v 9 1 -6
v 9 2 -6
v 9 3 -6
v 10 1 -6
v 10 2 -6
v 10 3 -6
v 11 0 -6
v 11 1 -6
v 11 2 -6
v 12 0 -6
v 12 1 -6
v -15 0 -7
v -15 1 -7
v -15 2 -7
v -14 0 -7
v -14 1 -7
v -14 2 -7
v -14 3 -7
v -13 2 -7
v -13 3 -7
v -12 0 -7
v -12 1 -7
v -12 2 -7
v -12 3 -7
v -10 0 -7
v -10 1 -7
v -10 2 -7
v 6 0 -7
v 6 1 -7
v 11 0 -7
v 11 1 -7
v -14 0 -8
v -14 1 -8
v -14 2 -8
v -12 0 -8
v -12 1 -8
v -12 2 -8
v -10 0 8
v 5 0 8
v 6 0 8
v -12 0 7
v -10 0 7
v 5 0 7
v 6 0 7
v 11 0 7
v -14 0 6
v -12 0 6
v -10 0 6
v 6 0 6
v 11 0 6
v 12 0 6
v -15 0 5
v -14 0 5
v -12 0 5
v -10 0 -5
v 5 0 -5
v -12 0 -6
v -10 0 -6
v 5 0 -6
v 6 0 -6
v 11 0 -6
v 12 0 -6
v -15 0 -7
v -14 0 -7
v -12 0 -7
v -10 0 -7
v 6 0 -7
v 11 0 -7
v -14 0 -8
v -12 0 -8
v 5 1 8
v 6 1 8
v 5 1 7
v 6 1 7
v 11 1 7
v 6 1 6
v 7 1 6
v 11 1 6
v 12 1 6
v 6 1 5
v 11 1 5
v 6 1 4
v 11 1 4
v 6 1 3
v 11 1 3
v 6 1 -5
v 11 1 -5
v 5 1 -6
v 6 1 -6
v 7 1 -6
v 8 1 -6
v 9 1 -6
v 10 1 -6
v 11 1 -6
v 12 1 -6
v 6 1 -7
v 11 1 -7
v -10 2 8
v -7 2 8
v -6 2 8
v 1 2 8
v 2 2 8
v 4 2 8
v 5 2 8
v -12 2 7
v -10 2 7
v -9 2 7
v -7 2 7
v -6 2 7
v -5 2 7
v -3 2 7
v 1 2 7
v 2 2 7
v 4 2 7
v 5 2 7
v -14 2 6
v -12 2 6
v -10 2 6
v 6 2 6
v 7 2 6
v 11 2 6
v -15 2 5
v -14 2 5
v -13 2 5
v -12 2 5
v 6 2 5
v 7 2 5
v 8 2 5
v 9 2 5
v 10 2 5
v 11 2 5
v -14 2 4
v 6 2 4
v 7 2 4
v 10 2 4
v 11 2 4
v -14 2 -3
v -14 2 -4
v -10 2 -5
v -8 2 -5
v -7 2 -5
v -6 2 -5
v -5 2 -5
v -4 2 -5
v 1 2 -5
v 2 2 -5
v 3 2 -5
v 5 2 -5
v 6 2 -5
v 7 2 -5
v 10 2 -5
v 11 2 -5
v -12 2 -6
v -10 2 -6
v -8 2 -6
v -7 2 -6
v -6 2 -6
v -5 2 -6
v 1 2 -6
v 2 2 -6
v 5 2 -6
v 6 2 -6
v 7 2 -6
v 10 2 -6
v 11 2 -6
v -15 2 -7
v -14 2 -7
v -13 2 -7
v -12 2 -7
v -10 2 -7
v -14 2 -8
v -12 2 -8
v -10 3 7
v -9 3 7
v -5 3 7
v -3 3 7
v 1 3 7
v 2 3 7
v 5 3 7
v -12 3 6
v -10 3 6
v -9 3 6
v -5 3 6
v -3 3 6
v -14 3 5
v -13 3 5
v -12 3 5
v -10 3 5
v 1 3 5
v 4 3 5
v 5 3 5
v 7 3 5
v 8 3 5
v 9 3 5
v 10 3 5
v -14 3 4
v -13 3 4
v -12 3 4
v -11 3 4
v -10 3 4
v -9 3 4
v -5 3 4
v -2 3 4
v -1 3 4
v 0 3 4
v 1 3 4
v 4 3 4
v 5 3 4
v 6 3 4
v 7 3 4
v 8 3 4
v 9 3 4
v 10 3 4
v 11 3 4
v -9 3 3
v -5 3 3
v -2 3 3
v -1 3 3
v 0 3 3
v 1 3 3
v 7 3 3
v 8 3 3
v 9 3 3
v 10 3 3
v 11 3 3
v -12 3 2
v -11 3 2
v -10 3 2
v 4 3 2
v 5 3 2
v 6 3 2
v 7 3 2
v 9 3 2
v 10 3 2
v -9 3 1
v -8 3 1
v 4 3 1
v 5 3 1
v 6 3 1
v 7 3 1
v 8 3 1
v 9 3 1
v 10 3 1
v -9 3 -0
v -8 3 -0
v 6 3 -0
v 7 3 -0
v 8 3 -0
v 9 3 -0
v 10 3 -0
v 11 3 -0
v -9 3 -1
v -8 3 -1
v 4 3 -1
v 5 3 -1
v 6 3 -1
v 7 3 -1
v -12 3 -2
v -11 3 -2
v 1 3 -2
v 4 3 -2
v 5 3 -2
v 6 3 -2
v 7 3 -2
v 8 3 -2
v 9 3 -2
v 10 3 -2
v 11 3 -2
v -14 3 -3
v -13 3 -3
v -10 3 -3
v -6 3 -3
v -4 3 -3
v -3 3 -3
v -1 3 -3
v 1 3 -3
v 8 3 -3
v 9 3 -3
v 10 3 -3
v 11 3 -3
v -14 3 -4
v -13 3 -4
v -11 3 -4
v -10 3 -4
v -6 3 -4
v -5 3 -4
v -4 3 -4
v -3 3 -4
v -1 3 -4
v 1 3 -4
v 2 3 -4
v 3 3 -4
v 4 3 -4
v 5 3 -4
v 7 3 -4
v 8 3 -4
v 9 3 -4
v 10 3 -4
v 11 3 -4
v -10 3 -5
v -5 3 -5
v -4 3 -5
v 1 3 -5
v 2 3 -5
v 3 3 -5
v 5 3 -5
v 6 3 -5
v 7 3 -5
v 8 3 -5
v 9 3 -5
v 10 3 -5
v 11 3 -5
v -13 3 -6
v -12 3 -6
v -10 3 -6
v 7 3 -6
v 9 3 -6
v 10 3 -6
v -14 3 -7
v -13 3 -7
v -12 3 -7

# faces
f 3/6/1 2/6/1 1/6/1
f 4/6/1 2/6/1 3/6/1
f 5/7/1 4/7/1 3/7/1
f 6/7/1 4/7/1 5/7/1
f 11/6/1 8/6/1 7/6/1
f 12/6/1 8/6/1 11/6/1
f 13/6/1 10/6/1 9/6/1
f 14/6/1 10/6/1 13/6/1
f 15/7/1 12/7/1 11/7/1
f 16/7/1 12/7/1 15/7/1
f 20/7/1 14/7/1 13/7/1
f 21/7/1 14/7/1 20/7/1
f 22/7/1 17/7/1 16/7/1
f 23/4/1 18/4/1 17/4/1
f 23/7/1 17/7/1 22/7/1
f 24/7/1 19/7/1 18/7/1
f 24/4/1 18/4/1 23/4/1
f 25/8/1 20/8/1 19/8/1
f 25/7/1 19/7/1 24/7/1
f 26/8/1 20/8/1 25/8/1
f 29/6/1 28/6/1 27/6/1
f 30/6/1 28/6/1 29/6/1
f 31/7/1 30/7/1 29/7/1
f 32/7/1 30/7/1 31/7/1
f 34/7/1 33/7/1 32/7/1
f 35/7/1 33/7/1 34/7/1
f 38/6/1 37/6/1 36/6/1
f 39/6/1 37/6/1 38/6/1
f 40/7/1 39/7/1 38/7/1
f 41/7/1 39/7/1 40/7/1
f 43/4/1 42/4/1 41/4/1
f 44/4/1 42/4/1 43/4/1
f 52/5/1 46/5/1 45/5/1
f 53/5/1 46/5/1 52/5/1
f 54/3/1 48/3/1 47/3/1
f 55/1/1 49/1/1 48/1/1
f 55/3/1 48/3/1 54/3/1
f 56/3/1 50/3/1 49/3/1
f 56/1/1 49/1/1 55/1/1
f 57/1/1 51/1/1 50/1/1
f 57/3/1 50/3/1 56/3/1
f 58/1/1 51/1/1 57/1/1
f 59/1/1 51/1/1 58/1/1
f 60/1/1 51/1/1 59/1/1
f 61/1/1 51/1/1 60/1/1
f 62/1/1 51/1/1 61/1/1
f 63/3/1 52/3/1 51/3/1
f 63/1/1 51/1/1 62/1/1
f 64/3/1 52/3/1 63/3/1
f 65/3/1 57/3/1 56/3/1
f 65/3/1 58/3/1 57/3/1
f 66/2/1 59/2/1 58/2/1
f 66/3/1 58/3/1 65/3/1
f 67/1/1 60/1/1 59/1/1
f 67/2/1 59/2/1 66/2/1
f 68/3/1 61/3/1 60/3/1
f 68/1/1 60/1/1 67/1/1
f 69/1/1 62/1/1 61/1/1
f 69/3/1 61/3/1 68/3/1
f 70/2/1 63/2/1 62/2/1
f 70/1/1 62/1/1 69/1/1
f 71/2/1 63/2/1 70/2/1
f 76/1/1 73/1/1 72/1/1
f 77/1/1 73/1/1 76/1/1
f 78/2/1 75/2/1 74/2/1
f 79/2/1 75/2/1 78/2/1
f 80/6/2 81/6/2 82/6/2
f 82/6/2 81/6/2 83/6/2
f 82/7/2 83/7/2 85/7/2
f 85/7/2 83/7/2 86/7/2
f 84/4/2 85/4/2 87/4/2
f 87/4/2 85/4/2 88/4/2
f 89/6/2 90/6/2 91/6/2
f 91/6/2 90/6/2 92/6/2
f 91/7/2 92/7/2 94/7/2
f 94/7/2 92/7/2 95/7/2
f 93/7/2 94/7/2 96/7/2
f 96/7/2 94/7/2 97/7/2
f 98/6/2 99/6/2 101/6/2
f 99/7/2 100/7/2 102/7/2
f 101/6/2 99/6/2 102/6/2
f 102/7/2 100/7/2 103/7/2
f 103/7/2 100/7/2 104/7/2
f 104/7/2 100/7/2 105/7/2
f 105/7/2 100/7/2 106/7/2
f 106/7/2 100/7/2 107/7/2
f 107/7/2 100/7/2 108/7/2
f 108/7/2 100/7/2 109/7/2
f 109/7/2 100/7/2 110/7/2
f 110/7/2 100/7/2 111/7/2
f 102/7/2 103/7/2 112/7/2
f 103/4/2 104/4/2 113/4/2
f 112/7/2 103/7/2 113/7/2
f 104/7/2 105/7/2 114/7/2
f 113/4/2 104/4/2 114/4/2
f 105/4/2 106/4/2 115/4/2
f 114/7/2 105/7/2 115/7/2
f 106/7/2 107/7/2 116/7/2
f 115/4/2 106/4/2 116/4/2
f 107/5/2 108/5/2 117/5/2
f 116/7/2 107/7/2 117/7/2
f 108/4/2 109/4/2 118/4/2
f 117/5/2 108/5/2 118/5/2
f 109/7/2 110/7/2 119/7/2
f 118/4/2 109/4/2 119/4/2
f 119/7/2 110/7/2 120/7/2
f 121/5/2 122/5/2 123/5/2
f 123/5/2 122/5/2 124/5/2
f 125/3/2 126/3/2 129/3/2
f 129/3/2 126/3/2 130/3/2
f 127/3/2 128/3/2 131/3/2
f 131/3/2 128/3/2 132/3/2
f 133/5/2 134/5/2 137/5/2
f 137/5/2 134/5/2 138/5/2
f 135/5/2 136/5/2 143/5/2
f 143/5/2 136/5/2 144/5/2
f 138/1/2 139/1/2 145/1/2
f 139/3/2 140/3/2 146/3/2
f 145/1/2 139/1/2 146/1/2
f 140/1/2 141/1/2 147/1/2
f 146/3/2 140/3/2 147/3/2
f 141/3/2 142/3/2 148/3/2
f 147/1/2 141/1/2 148/1/2
f 148/3/2 142/3/2 149/3/2
f 149/3/2 142/3/2 150/3/2
f 150/3/2 142/3/2 151/3/2
f 151/3/2 142/3/2 152/3/2
f 142/2/2 143/2/2 153/2/2
f 152/3/2 142/3/2 153/3/2
f 153/2/2 143/2/2 154/2/2
f 147/2/2 148/2/2 155/2/2
f 148/3/2 149/3/2 156/3/2
f 155/2/2 148/2/2 156/2/2
f 149/1/2 150/1/2 157/1/2
f 156/3/2 149/3/2 157/3/2
f 150/3/2 151/3/2 158/3/2
f 157/1/2 150/1/2 158/1/2
f 151/1/2 152/1/2 159/1/2
f 158/3/2 151/3/2 159/3/2
f 152/3/2 153/3/2 160/3/2
f 159/1/2 152/1/2 160/1/2
f 160/3/2 153/3/2 161/3/2
f 162/5/2 163/5/2 164/5/2
f 164/5/2 163/5/2 165/5/2
f 169/6/3 167/6/3 166/6/3
f 169/7/3 168/7/3 167/7/3
f 170/7/3 168/7/3 169/7/3
f 171/6/3 169/6/3 166/6/3
f 171/6/3 170/6/3 169/6/3
f 172/6/3 170/6/3 171/6/3
f 173/6/3 171/6/3 166/6/3
f 173/7/3 172/7/3 171/7/3
f 174/7/3 172/7/3 173/7/3
f 175/6/3 173/6/3 166/6/3
f 175/6/3 174/6/3 173/6/3
f 176/6/3 174/6/3 175/6/3
f 177/6/3 175/6/3 166/6/3
f 177/7/3 176/7/3 175/7/3
f 178/7/3 176/7/3 177/7/3
f 179/6/3 177/6/3 166/6/3
f 179/6/3 178/6/3 177/6/3
f 180/6/3 178/6/3 179/6/3
f 181/6/3 178/6/3 180/6/3
f 182/5/3 180/5/3 179/5/3
f 183/5/3 180/5/3 182/5/3
f 187/6/3 185/6/3 184/6/3
f 188/7/3 186/7/3 185/7/3
f 188/6/3 185/6/3 187/6/3
f 189/7/3 186/7/3 188/7/3
f 191/4/3 190/4/3 189/4/3
f 192/4/3 190/4/3 191/4/3
f 193/7/3 192/7/3 191/7/3
f 194/7/3 192/7/3 193/7/3
f 195/7/3 192/7/3 194/7/3
f 196/7/3 192/7/3 195/7/3
f 197/6/3 196/6/3 195/6/3
f 198/6/3 196/6/3 197/6/3
f 199/7/3 198/7/3 197/7/3
f 200/7/3 198/7/3 199/7/3
f 201/6/3 200/6/3 199/6/3
f 202/6/3 200/6/3 201/6/3
f 203/7/3 202/7/3 201/7/3
f 204/7/3 202/7/3 203/7/3
f 205/7/3 202/7/3 204/7/3
f 208/5/3 207/5/3 206/5/3
f 209/5/3 207/5/3 208/5/3
f 213/6/3 211/6/3 210/6/3
f 214/7/3 212/7/3 211/7/3
f 214/6/3 211/6/3 213/6/3
f 215/7/3 212/7/3 214/7/3
f 217/7/3 216/7/3 215/7/3
f 218/7/3 216/7/3 217/7/3
f 221/3/3 220/3/3 219/3/3
f 222/3/3 220/3/3 221/3/3
f 224/1/3 222/1/3 221/1/3
f 225/1/3 222/1/3 224/1/3
f 226/5/3 224/5/3 223/5/3
f 227/5/3 224/5/3 226/5/3
f 231/6/3 229/6/3 228/6/3
f 232/7/3 230/7/3 229/7/3
f 232/6/3 229/6/3 231/6/3
f 233/7/3 230/7/3 232/7/3
f 235/7/3 234/7/3 233/7/3
f 236/7/3 234/7/3 235/7/3
f 237/6/3 236/6/3 235/6/3
f 238/6/3 236/6/3 237/6/3
f 241/1/3 240/1/3 239/1/3
f 242/1/3 240/1/3 241/1/3
f 243/2/3 242/2/3 241/2/3
f 244/2/3 242/2/3 243/2/3
f 245/3/3 244/3/3 243/3/3
f 246/3/3 244/3/3 245/3/3
f 249/3/3 248/3/3 247/3/3
f 250/3/3 248/3/3 249/3/3
f 253/2/3 252/2/3 251/2/3
f 254/2/3 252/2/3 253/2/3
f 255/7/4 256/7/4 257/7/4
f 257/7/4 256/7/4 258/7/4
f 258/7/4 256/7/4 259/7/4
f 259/7/4 256/7/4 260/7/4
f 260/7/4 256/7/4 261/7/4
f 260/4/4 261/4/4 262/4/4
f 262/4/4 261/4/4 263/4/4
f 262/7/4 263/7/4 264/7/4
f 264/7/4 263/7/4 265/7/4
f 264/6/4 265/6/4 266/6/4
f 266/6/4 265/6/4 267/6/4
f 266/4/4 267/4/4 268/4/4
f 268/4/4 267/4/4 269/4/4
f 268/7/4 269/7/4 270/7/4
f 270/7/4 269/7/4 271/7/4
f 272/2/4 273/2/4 274/2/4
f 274/2/4 273/2/4 275/2/4
f 276/3/4 277/3/4 278/3/4
f 278/3/4 277/3/4 279/3/4
f 280/7/4 281/7/4 284/7/4
f 284/7/4 281/7/4 285/7/4
f 282/6/4 283/6/4 286/6/4
f 283/7/4 284/7/4 286/7/4
f 286/7/4 284/7/4 287/7/4
f 282/6/4 286/6/4 288/6/4
f 286/4/4 287/4/4 288/4/4
f 288/4/4 287/4/4 289/4/4
f 282/6/4 288/6/4 290/6/4
f 288/7/4 289/7/4 290/7/4
f 290/7/4 289/7/4 291/7/4
f 282/6/4 290/6/4 292/6/4
f 290/6/4 291/6/4 292/6/4
f 292/6/4 291/6/4 293/6/4
f 282/6/4 292/6/4 294/6/4
f 292/7/4 293/7/4 294/7/4
f 294/7/4 293/7/4 295/7/4
f 282/6/4 294/6/4 296/6/4
f 294/6/4 295/6/4 296/6/4
f 296/6/4 295/6/4 297/6/4
f 282/6/4 296/6/4 298/6/4
f 296/7/4 297/7/4 299/7/4
f 298/6/4 296/6/4 299/6/4
f 299/7/4 297/7/4 300/7/4
f 298/5/4 299/5/4 301/5/4
f 301/5/4 299/5/4 302/5/4
f 302/3/4 303/3/4 304/3/4
f 304/3/4 303/3/4 305/3/4
f 304/1/4 305/1/4 307/1/4
f 305/2/4 306/2/4 308/2/4
f 307/1/4 305/1/4 308/1/4
f 307/2/4 308/2/4 309/2/4
f 308/2/4 306/2/4 310/2/4
f 309/2/4 308/2/4 310/2/4
f 310/2/4 306/2/4 311/2/4
f 309/1/4 310/1/4 312/1/4
f 310/3/4 311/3/4 313/3/4
f 312/1/4 310/1/4 313/1/4
f 313/3/4 311/3/4 314/3/4
f 312/2/4 313/2/4 316/2/4
f 316/2/4 313/2/4 317/2/4
f 315/5/4 316/5/4 318/5/4
f 318/5/4 316/5/4 319/5/4
f 320/6/4 321/6/4 323/6/4
f 321/7/4 322/7/4 324/7/4
f 323/6/4 321/6/4 324/6/4
f 324/7/4 322/7/4 325/7/4
f 325/8/4 326/8/4 327/8/4
f 327/8/4 326/8/4 328/8/4
f 327/4/4 328/4/4 331/4/4
f 331/4/4 328/4/4 332/4/4
f 329/6/4 330/6/4 333/6/4
f 330/7/4 331/7/4 334/7/4
f 333/6/4 330/6/4 334/6/4
f 334/7/4 331/7/4 335/7/4
f 336/5/4 337/5/4 338/5/4
f 338/5/4 337/5/4 339/5/4
f 340/6/4 341/6/4 343/6/4
f 341/7/4 342/7/4 344/7/4
f 343/6/4 341/6/4 344/6/4
f 344/7/4 342/7/4 345/7/4
f 350/6/5 347/6/5 346/6/5
f 351/5/5 348/5/5 347/5/5
f 351/6/5 347/6/5 350/6/5
f 352/5/5 348/5/5 351/5/5
f 355/6/5 350/6/5 349/6/5
f 356/7/5 351/7/5 350/7/5
f 356/6/5 350/6/5 355/6/5
f 357/5/5 353/5/5 352/5/5
f 357/5/5 352/5/5 351/5/5
f 358/5/5 353/5/5 357/5/5
f 361/6/5 355/6/5 354/6/5
f 362/7/5 356/7/5 355/7/5
f 362/6/5 355/6/5 361/6/5
f 363/7/5 351/7/5 356/7/5
f 363/7/5 356/7/5 362/7/5
f 363/7/5 362/7/5 361/7/5
f 364/5/5 357/5/5 351/5/5
f 364/7/5 351/7/5 363/7/5
f 365/7/5 363/7/5 361/7/5
f 366/6/5 364/6/5 363/6/5
f 366/7/5 363/7/5 365/7/5
f 367/5/5 357/5/5 364/5/5
f 367/6/5 364/6/5 366/6/5
f 368/7/5 358/7/5 357/7/5
f 368/5/5 357/5/5 367/5/5
f 369/5/5 359/5/5 358/5/5
f 369/7/5 358/7/5 368/7/5
f 370/5/5 359/5/5 369/5/5
f 371/6/5 361/6/5 360/6/5
f 372/7/5 365/7/5 361/7/5
f 372/6/5 361/6/5 371/6/5
f 373/6/5 366/6/5 365/6/5
f 373/7/5 365/7/5 372/7/5
f 374/6/5 366/6/5 373/6/5
f 375/5/5 369/5/5 368/5/5
f 376/5/5 369/5/5 375/5/5
f 377/6/5 373/6/5 372/6/5
f 378/6/5 373/6/5 377/6/5
f 379/5/6 380/5/6 381/5/6
f 381/5/6 380/5/6 382/5/6
f 381/5/6 382/5/6 384/5/6
f 382/5/6 383/5/6 384/5/6
f 384/5/6 383/5/6 385/5/6
f 385/5/6 383/5/6 386/5/6
f 381/5/6 384/5/6 388/5/6
f 386/5/6 387/5/6 389/5/6
f 381/5/6 388/5/6 390/5/6
f 389/5/6 387/5/6 391/5/6
f 381/5/6 390/5/6 392/5/6
f 391/5/6 387/5/6 393/5/6
f 381/5/6 392/5/6 394/5/6
f 393/5/6 387/5/6 395/5/6
f 381/5/6 394/5/6 396/5/6
f 396/5/6 394/5/6 397/5/6
f 395/5/6 387/5/6 402/5/6
f 402/5/6 387/5/6 403/5/6
f 400/5/6 401/5/6 404/5/6
f 401/5/6 402/5/6 404/5/6
f 397/5/6 398/5/6 404/5/6
f 399/5/6 400/5/6 404/5/6
f 398/5/6 399/5/6 404/5/6
f 404/5/6 402/5/6 405/5/6
f 406/7/6 407/7/6 414/7/6
f 414/7/6 407/7/6 415/7/6
f 407/6/6 408/6/6 416/6/6
f 415/7/6 407/7/6 416/7/6
f 408/7/6 409/7/6 417/7/6
f 416/6/6 408/6/6 417/6/6
f 417/7/6 409/7/6 418/7/6
f 418/7/6 409/7/6 419/7/6
f 409/6/6 410/6/6 420/6/6
f 419/7/6 409/7/6 420/7/6
f 410/7/6 411/7/6 421/7/6
f 420/6/6 410/6/6 421/6/6
f 411/6/6 412/6/6 422/6/6
f 421/7/6 411/7/6 422/7/6
f 422/6/6 412/6/6 423/6/6
f 413/7/6 414/7/6 425/7/6
f 425/7/6 414/7/6 426/7/6
f 424/7/6 425/7/6 431/7/6
f 431/7/6 425/7/6 432/7/6
f 432/7/6 425/7/6 433/7/6
f 427/3/6 428/3/6 434/3/6
f 428/1/6 429/1/6 435/1/6
f 434/3/6 428/3/6 435/3/6
f 435/1/6 429/1/6 436/1/6
f 436/1/6 429/1/6 437/1/6
f 437/1/6 429/1/6 438/1/6
f 438/1/6 429/1/6 439/1/6
f 430/7/6 431/7/6 440/7/6
f 434/1/6 435/1/6 441/1/6
f 441/1/6 435/1/6 442/1/6
f 438/3/6 439/3/6 443/3/6
f 443/3/6 439/3/6 444/3/6
f 430/7/6 440/7/6 445/7/6
f 430/7/6 445/7/6 446/7/6
f 447/7/6 448/7/6 462/7/6
f 448/4/6 449/4/6 463/4/6
f 462/7/6 448/7/6 463/7/6
f 449/7/6 450/7/6 464/7/6
f 463/4/6 449/4/6 464/4/6
f 450/6/6 451/6/6 465/6/6
f 464/7/6 450/7/6 465/7/6
f 451/7/6 452/7/6 466/7/6
f 465/6/6 451/6/6 466/6/6
f 452/7/6 453/7/6 466/7/6
f 453/6/6 454/6/6 467/6/6
f 466/7/6 453/7/6 467/7/6
f 454/7/6 455/7/6 468/7/6
f 467/6/6 454/6/6 468/6/6
f 455/7/6 456/7/6 468/7/6
f 468/7/6 456/7/6 469/7/6
f 457/3/6 458/3/6 470/3/6
f 470/3/6 458/3/6 471/3/6
f 459/2/6 460/2/6 472/2/6
f 472/2/6 460/2/6 473/2/6
f 430/7/6 446/7/6 474/7/6
f 474/7/6 446/7/6 475/7/6
f 461/7/6 462/7/6 477/7/6
f 477/7/6 462/7/6 478/7/6
f 475/7/6 476/7/6 479/7/6
f 476/7/6 477/7/6 479/7/6
f 479/7/6 477/7/6 480/7/6
f 481/4/6 482/4/6 489/4/6
f 482/7/6 483/7/6 490/7/6
f 489/4/6 482/4/6 490/4/6
f 483/6/6 484/6/6 491/6/6
f 490/7/6 483/7/6 491/7/6
f 484/7/6 485/7/6 492/7/6
f 491/6/6 484/6/6 492/6/6
f 488/7/6 489/7/6 495/7/6
f 489/7/6 490/7/6 495/7/6
f 490/7/6 491/7/6 495/7/6
f 491/7/6 492/7/6 495/7/6
f 495/7/6 492/7/6 496/7/6
f 492/7/6 485/7/6 497/7/6
f 496/7/6 492/7/6 497/7/6
f 485/6/6 486/6/6 497/6/6
f 486/7/6 487/7/6 498/7/6
f 498/7/6 487/7/6 499/7/6
f 493/7/6 494/7/6 504/7/6
f 494/6/6 495/6/6 505/6/6
f 504/7/6 494/7/6 505/7/6
f 495/7/6 496/7/6 506/7/6
f 505/6/6 495/6/6 506/6/6
f 506/7/6 496/7/6 507/7/6
f 496/6/6 497/6/6 508/6/6
f 507/7/6 496/7/6 508/7/6
f 508/6/6 497/6/6 509/6/6
f 509/6/6 497/6/6 510/6/6
f 510/6/6 497/6/6 511/6/6
f 511/6/6 497/6/6 512/6/6
f 512/6/6 497/6/6 513/6/6
f 497/6/6 486/6/6 514/6/6
f 513/6/6 497/6/6 514/6/6
f 486/7/6 498/7/6 515/7/6
f 498/4/6 499/4/6 515/4/6
f 515/4/6 499/4/6 516/4/6
f 500/1/6 501/1/6 518/1/6
f 501/2/6 502/2/6 519/2/6
f 518/1/6 501/1/6 519/1/6
f 502/3/6 503/3/6 520/3/6
f 519/2/6 502/2/6 520/2/6
f 520/3/6 503/3/6 521/3/6
f 508/7/6 509/7/6 523/7/6
f 509/8/6 510/8/6 523/8/6
f 510/7/6 511/7/6 524/7/6
f 523/8/6 510/8/6 524/8/6
f 511/8/6 512/8/6 525/8/6
f 524/7/6 511/7/6 525/7/6
f 512/7/6 513/7/6 526/7/6
f 525/8/6 512/8/6 526/8/6
f 513/8/6 514/8/6 527/8/6
f 526/7/6 513/7/6 527/7/6
f 514/6/6 486/6/6 528/6/6
f 527/8/6 514/8/6 528/8/6
f 518/3/6 519/3/6 529/3/6
f 517/3/6 518/3/6 529/3/6
f 519/1/6 520/1/6 530/1/6
f 529/3/6 519/3/6 530/3/6
f 520/3/6 521/3/6 531/3/6
f 530/1/6 520/1/6 531/1/6
f 521/2/6 522/2/6 532/2/6
f 531/3/6 521/3/6 532/3/6
f 532/2/6 522/2/6 533/2/6
f 506/7/6 507/7/6 534/7/6
f 505/7/6 506/7/6 534/7/6
f 507/6/6 508/6/6 535/6/6
f 534/7/6 507/7/6 535/7/6
f 524/7/6 525/7/6 536/7/6
f 535/6/6 508/6/6 536/6/6
f 526/7/6 527/7/6 536/7/6
f 525/7/6 526/7/6 536/7/6
f 527/7/6 528/7/6 536/7/6
f 508/7/6 523/7/6 536/7/6
f 523/7/6 524/7/6 536/7/6
f 515/7/6 516/7/6 537/7/6
f 486/7/6 515/7/6 537/7/6
f 537/7/6 516/7/6 538/7/6
f 517/3/6 529/3/6 539/3/6
f 531/2/6 532/2/6 540/2/6
f 539/3/6 529/3/6 540/3/6
f 530/2/6 531/2/6 540/2/6
f 529/2/6 530/2/6 540/2/6
f 540/2/6 532/2/6 541/2/6
f 532/3/6 533/3/6 542/3/6
f 541/2/6 532/2/6 542/2/6
f 536/7/6 528/7/6 543/7/6
f 535/7/6 536/7/6 543/7/6
f 543/7/6 528/7/6 544/7/6
f 537/4/6 538/4/6 545/4/6
f 486/7/6 537/7/6 545/7/6
f 545/4/6 538/4/6 546/4/6
f 539/2/6 540/2/6 547/2/6
f 540/3/6 541/3/6 548/3/6
f 547/2/6 540/2/6 548/2/6
f 548/3/6 541/3/6 549/3/6
f 541/1/6 542/1/6 550/1/6
f 549/3/6 541/3/6 550/3/6
f 542/3/6 533/3/6 551/3/6
f 550/1/6 542/1/6 551/1/6
f 543/4/6 544/4/6 552/4/6
f 535/7/6 543/7/6 552/7/6
f 544/7/6 528/7/6 553/7/6
f 552/4/6 544/4/6 553/4/6
f 547/1/6 548/1/6 554/1/6
f 548/3/6 549/3/6 555/3/6
f 554/1/6 548/1/6 555/1/6
f 549/2/6 550/2/6 556/2/6
f 555/3/6 549/3/6 556/3/6
f 550/2/6 551/2/6 556/2/6
f 556/2/6 551/2/6 557/2/6
f 551/3/6 533/3/6 558/3/6
f 557/2/6 551/2/6 558/2/6
f 558/3/6 533/3/6 559/3/6
f 535/7/6 552/7/6 560/7/6
f 552/8/6 553/8/6 560/8/6
f 553/7/6 528/7/6 561/7/6
f 560/8/6 553/8/6 561/8/6
f 545/7/6 546/7/6 562/7/6
f 486/7/6 545/7/6 562/7/6
f 562/7/6 546/7/6 563/7/6
f 554/3/6 555/3/6 564/3/6
f 556/3/6 557/3/6 564/3/6
f 555/3/6 556/3/6 564/3/6
f 564/3/6 557/3/6 565/3/6
f 534/6/6 535/6/6 566/6/6
f 505/7/6 534/7/6 566/7/6
f 560/7/6 561/7/6 567/7/6
f 566/6/6 535/6/6 567/6/6
f 535/7/6 560/7/6 567/7/6
f 528/6/6 486/6/6 568/6/6
f 567/7/6 561/7/6 568/7/6
f 561/7/6 528/7/6 568/7/6
f 562/5/6 563/5/6 569/5/6
f 486/7/6 562/7/6 569/7/6
f 569/5/6 563/5/6 570/5/6
f 564/1/6 565/1/6 571/1/6
f 565/3/6 557/3/6 572/3/6
f 571/1/6 565/1/6 572/1/6
f 572/3/6 557/3/6 573/3/6
f 557/2/6 558/2/6 574/2/6
f 573/3/6 557/3/6 574/3/6
f 558/1/6 559/1/6 575/1/6
f 574/2/6 558/2/6 575/2/6
f 575/1/6 559/1/6 576/1/6
f 504/4/6 505/4/6 577/4/6
f 566/7/6 567/7/6 578/7/6
f 577/4/6 505/4/6 578/4/6
f 505/7/6 566/7/6 578/7/6
f 567/6/6 568/6/6 579/6/6
f 579/6/6 568/6/6 580/6/6
f 580/6/6 568/6/6 581/6/6
f 581/6/6 568/6/6 582/6/6
f 582/6/6 568/6/6 583/6/6
f 568/6/6 486/6/6 584/6/6
f 583/6/6 568/6/6 584/6/6
f 572/3/6 573/3/6 585/3/6
f 573/2/6 574/2/6 585/2/6
f 574/2/6 575/2/6 585/2/6
f 585/2/6 575/2/6 586/2/6
f 575/3/6 576/3/6 587/3/6
f 586/2/6 575/2/6 587/2/6
f 587/3/6 576/3/6 588/3/6
f 577/7/6 578/7/6 589/7/6
f 578/7/6 567/7/6 590/7/6
f 589/7/6 578/7/6 590/7/6
f 567/6/6 579/6/6 591/6/6
f 590/7/6 567/7/6 591/7/6
f 579/8/6 580/8/6 592/8/6
f 591/6/6 579/6/6 592/6/6
f 580/7/6 581/7/6 593/7/6
f 592/8/6 580/8/6 593/8/6
f 593/7/6 581/7/6 594/7/6
f 581/8/6 582/8/6 595/8/6
f 594/7/6 581/7/6 595/7/6
f 582/7/6 583/7/6 596/7/6
f 595/8/6 582/8/6 596/8/6
f 583/8/6 584/8/6 597/8/6
f 596/7/6 583/7/6 597/7/6
f 584/6/6 486/6/6 598/6/6
f 597/8/6 584/8/6 598/8/6
f 486/7/6 569/7/6 599/7/6
f 598/6/6 486/6/6 599/6/6
f 599/7/6 569/7/6 600/7/6
f 569/4/6 570/4/6 601/4/6
f 600/7/6 569/7/6 601/7/6
f 601/4/6 570/4/6 602/4/6
f 571/2/6 572/2/6 603/2/6
f 572/3/6 585/3/6 603/3/6
f 585/1/6 586/1/6 604/1/6
f 603/3/6 585/3/6 604/3/6
f 586/2/6 587/2/6 605/2/6
f 604/1/6 586/1/6 605/1/6
f 587/1/6 588/1/6 606/1/6
f 605/2/6 587/2/6 606/2/6
f 606/1/6 588/1/6 607/1/6
f 593/7/6 594/7/6 608/7/6
f 590/7/6 591/7/6 608/7/6
f 591/7/6 592/7/6 608/7/6
f 592/7/6 593/7/6 608/7/6
f 594/4/6 595/4/6 609/4/6
f 608/7/6 594/7/6 609/7/6
f 596/7/6 597/7/6 610/7/6
f 609/4/6 595/4/6 610/4/6
f 595/7/6 596/7/6 610/7/6
f 597/7/6 598/7/6 610/7/6
f 598/6/6 599/6/6 611/6/6
f 610/7/6 598/7/6 611/7/6
f 599/4/6 600/4/6 612/4/6
f 611/6/6 599/6/6 612/6/6
f 601/7/6 602/7/6 613/7/6
f 612/4/6 600/4/6 613/4/6
f 600/7/6 601/7/6 613/7/6
f 613/7/6 602/7/6 614/7/6
f 571/2/6 603/2/6 615/2/6
f 603/2/6 604/2/6 615/2/6
f 615/2/6 604/2/6 616/2/6
f 604/1/6 605/1/6 617/1/6
f 616/2/6 604/2/6 617/2/6
f 606/3/6 607/3/6 618/3/6
f 617/1/6 605/1/6 618/1/6
f 605/3/6 606/3/6 618/3/6
f 618/3/6 607/3/6 619/3/6
f 619/3/6 607/3/6 620/3/6
f 590/7/6 608/7/6 621/7/6
f 589/8/6 590/8/6 621/8/6
f 621/7/6 608/7/6 622/7/6
f 622/7/6 608/7/6 623/7/6
f 617/2/6 618/2/6 624/2/6
f 616/2/6 617/2/6 624/2/6
f 618/3/6 619/3/6 625/3/6
f 624/2/6 618/2/6 625/2/6
f 625/3/6 619/3/6 626/3/6
f 589/8/6 621/8/6 627/8/6
f 621/4/6 622/4/6 628/4/6
f 627/8/6 621/8/6 628/8/6
f 628/4/6 622/4/6 629/4/6
