# MagicaVoxel @ Ephtracy

# material
mtllib Rubble.mtl
usemtl palette

# normals
vn -1 0 0
vn 1 0 0
vn 0 0 1
vn 0 0 -1
vn 0 -1 0
vn 0 1 0

# texcoords
vt 0.966797 0.5
vt 0.974609 0.5
vt 0.982422 0.5

# verts
v -5 0 1.5
v -5 0 0.5
v -5 1 1.5
v -5 1 0.5
v -3 0 5.5
v -3 0 4.5
v -3 0 2.5
v -3 0 0.5
v -3 0 -0.5
v -3 0 -1.5
v -3 1 5.5
v -3 1 4.5
v -3 1 2.5
v -3 1 0.5
v -3 1 -0.5
v -3 1 -1.5
v -2 0 0.5
v -2 0 -0.5
v -2 0 -1.5
v -2 0 -2.5
v -2 1 1.5
v -2 1 0.5
v -2 1 -0.5
v -2 1 -1.5
v -2 1 -2.5
v -2 2 1.5
v -2 2 0.5
v -2 2 -0.5
v -2 2 -1.5
v -1 0 3.5
v -1 0 2.5
v -1 1 3.5
v -1 1 2.5
v -1 1 1.5
v -1 2 3.5
v -1 2 2.5
v -1 2 1.5
v -1 2 0.5
v -1 2 -0.5
v -1 3 1.5
v -1 3 0.5
v -1 3 -0.5
v 1 0 3.5
v 1 0 2.5
v 1 1 3.5
v 1 1 2.5
v 1 2 2.5
v 1 2 1.5
v 1 2 -0.5
v 1 2 -1.5
v 1 3 2.5
v 1 3 1.5
v 1 3 -0.5
v 1 3 -1.5
v 3 0 6.5
v 3 0 5.5
v 3 0 -2.5
v 3 0 -3.5
v 3 1 6.5
v 3 1 5.5
v 3 1 -2.5
v 3 1 -3.5
v -4 0 1.5
v -4 0 0.5
v -4 1 1.5
v -4 1 0.5
v -2 0 5.5
v -2 0 4.5
v -2 1 5.5
v -2 1 4.5
v 0 0 3.5
v 0 0 2.5
v 0 1 3.5
v 0 1 2.5
v 1 1 3.5
v 1 1 2.5
v 1 2 3.5
v 1 2 2.5
v 1 2 1.5
v 1 2 0.5
v 1 2 -0.5
v 1 3 1.5
v 1 3 0.5
v 1 3 -0.5
v 2 0 3.5
v 2 0 2.5
v 2 0 1.5
v 2 0 0.5
v 2 0 -0.5
v 2 0 -1.5
v 2 0 -2.5
v 2 1 3.5
v 2 1 2.5
v 2 1 1.5
v 2 1 0.5
v 2 1 -0.5
v 2 1 -1.5
v 2 1 -2.5
v 2 2 2.5
v 2 2 1.5
v 2 2 0.5
v 2 2 -0.5
v 2 2 -1.5
v 2 3 2.5
v 2 3 1.5
v 2 3 -0.5
v 2 3 -1.5
v 3 0 2.5
v 3 0 1.5
v 3 0 -0.5
v 3 0 -1.5
v 3 1 2.5
v 3 1 1.5
v 3 1 -0.5
v 3 1 -1.5
v 4 0 6.5
v 4 0 5.5
v 4 0 -2.5
v 4 0 -3.5
v 4 1 6.5
v 4 1 5.5
v 4 1 -2.5
v 4 1 -3.5
v 3 0 6.5
v 3 1 6.5
v 4 0 6.5
v 4 1 6.5
v -3 0 5.5
v -3 1 5.5
v -2 0 5.5
v -2 1 5.5
v -1 0 3.5
v -1 1 3.5
v -1 2 3.5
v 0 0 3.5
v 0 1 3.5
v 0 2 3.5
v 1 0 3.5
v 1 1 3.5
v 1 2 3.5
v 2 0 3.5
v 2 1 3.5
v -3 0 2.5
v -3 1 2.5
v -2 0 2.5
v -2 1 2.5
v -1 0 2.5
v -1 1 2.5
v 0 0 2.5
v 0 1 2.5
v 1 0 2.5
v 1 1 2.5
v 1 2 2.5
v 1 3 2.5
v 2 0 2.5
v 2 1 2.5
v 2 2 2.5
v 2 3 2.5
v 3 0 2.5
v 3 1 2.5
v -5 0 1.5
v -5 1 1.5
v -4 0 1.5
v -4 1 1.5
v -2 1 1.5
v -2 2 1.5
v -1 1 1.5
v -1 2 1.5
v -1 3 1.5
v 0 2 1.5
v 0 3 1.5
v 1 2 1.5
v 1 3 1.5
v -3 0 -0.5
v -3 1 -0.5
v -2 0 -0.5
v -2 1 -0.5
v 1 2 -0.5
v 1 3 -0.5
v 2 0 -0.5
v 2 1 -0.5
v 2 2 -0.5
v 2 3 -0.5
v 3 0 -0.5
v 3 1 -0.5
v 3 0 -2.5
v 3 1 -2.5
v 4 0 -2.5
v 4 1 -2.5
v 3 0 5.5
v 3 1 5.5
v 4 0 5.5
v 4 1 5.5
v -3 0 4.5
v -3 1 4.5
v -2 0 4.5
v -2 1 4.5
v 1 2 1.5
v 1 3 1.5
v 2 0 1.5
v 2 1 1.5
v 2 2 1.5
v 2 3 1.5
v 3 0 1.5
v 3 1 1.5
v -5 0 0.5
v -5 1 0.5
v -4 0 0.5
v -4 1 0.5
v -3 0 0.5
v -3 1 0.5
v -2 0 0.5
v -2 1 0.5
v -1 2 -0.5
v -1 3 -0.5
v 0 2 -0.5
v 0 3 -0.5
v 1 2 -0.5
v 1 3 -0.5
v -3 0 -1.5
v -3 1 -1.5
v -2 0 -1.5
v -2 1 -1.5
v -2 2 -1.5
v -1 1 -1.5
v 0 1 -1.5
v 1 1 -1.5
v 1 2 -1.5
v 1 3 -1.5
v 2 0 -1.5
v 2 1 -1.5
v 2 2 -1.5
v 2 3 -1.5
v 3 0 -1.5
v 3 1 -1.5
v -2 0 -2.5
v -2 1 -2.5
v -1 0 -2.5
v -1 1 -2.5
v 0 0 -2.5
v 0 1 -2.5
v 1 0 -2.5
v 1 1 -2.5
v 2 0 -2.5
v 2 1 -2.5
v 3 0 -3.5
v 3 1 -3.5
v 4 0 -3.5
v 4 1 -3.5
v 3 0 6.5
v 4 0 6.5
v -3 0 5.5
v -2 0 5.5
v 3 0 5.5
v 4 0 5.5
v -3 0 4.5
v -2 0 4.5
v -1 0 3.5
v 0 0 3.5
v 1 0 3.5
v 2 0 3.5
v -3 0 2.5
v -2 0 2.5
v -1 0 2.5
v 0 0 2.5
v 1 0 2.5
v 2 0 2.5
v 3 0 2.5
v -5 0 1.5
v -4 0 1.5
v -2 0 1.5
v -1 0 1.5
v 0 0 1.5
v 1 0 1.5
v 2 0 1.5
v 3 0 1.5
v -5 0 0.5
v -4 0 0.5
v -3 0 0.5
v -2 0 0.5
v 1 0 0.5
v 2 0 0.5
v -3 0 -0.5
v -2 0 -0.5
v 2 0 -0.5
v 3 0 -0.5
v -3 0 -1.5
v -2 0 -1.5
v -1 0 -1.5
v 0 0 -1.5
v 1 0 -1.5
v 2 0 -1.5
v 3 0 -1.5
v -2 0 -2.5
v -1 0 -2.5
v 0 0 -2.5
v 1 0 -2.5
v 2 0 -2.5
v 3 0 -2.5
v 4 0 -2.5
v 3 0 -3.5
v 4 0 -3.5
v 0 1 3.5
v 1 1 3.5
v 0 1 2.5
v 1 1 2.5
v 3 1 6.5
v 4 1 6.5
v -3 1 5.5
v -2 1 5.5
v 3 1 5.5
v 4 1 5.5
v -3 1 4.5
v -2 1 4.5
v 1 1 3.5
v 2 1 3.5
v -3 1 2.5
v -2 1 2.5
v -1 1 2.5
v 1 1 2.5
v 2 1 2.5
v 3 1 2.5
v -5 1 1.5
v -4 1 1.5
v -2 1 1.5
v -1 1 1.5
v 2 1 1.5
v 3 1 1.5
v -5 1 0.5
v -4 1 0.5
v -3 1 0.5
v -2 1 0.5
v -3 1 -0.5
v -2 1 -0.5
v 2 1 -0.5
v 3 1 -0.5
v -3 1 -1.5
v -2 1 -1.5
v -1 1 -1.5
v 0 1 -1.5
v 1 1 -1.5
v 2 1 -1.5
v 3 1 -1.5
v -2 1 -2.5
v -1 1 -2.5
v 0 1 -2.5
v 1 1 -2.5
v 2 1 -2.5
v 3 1 -2.5
v 4 1 -2.5
v 3 1 -3.5
v 4 1 -3.5
v -1 2 3.5
v 0 2 3.5
v 1 2 3.5
v -1 2 2.5
v 0 2 2.5
v 1 2 2.5
v -2 2 1.5
v -1 2 1.5
v 0 2 1.5
v 1 2 1.5
v 2 2 1.5
v -2 2 0.5
v -1 2 0.5
v 1 2 0.5
v 2 2 0.5
v -2 2 -0.5
v -1 2 -0.5
v 0 2 -0.5
v 1 2 -0.5
v 2 2 -0.5
v -2 2 -1.5
v 1 2 -1.5
v 1 3 2.5
v 2 3 2.5
v -1 3 1.5
v 0 3 1.5
v 1 3 1.5
v 2 3 1.5
v -1 3 0.5
v 0 3 0.5
v 1 3 0.5
v -1 3 -0.5
v 0 3 -0.5
v 1 3 -0.5
v 2 3 -0.5
v 1 3 -1.5
v 2 3 -1.5

# faces
f 3/3/1 2/3/1 1/3/1
f 4/3/1 2/3/1 3/3/1
f 11/1/1 6/1/1 5/1/1
f 12/1/1 6/1/1 11/1/1
f 13/1/1 8/1/1 7/1/1
f 14/1/1 8/1/1 13/1/1
f 15/2/1 10/2/1 9/2/1
f 16/2/1 10/2/1 15/2/1
f 22/1/1 18/1/1 17/1/1
f 23/1/1 18/1/1 22/1/1
f 24/1/1 20/1/1 19/1/1
f 25/1/1 20/1/1 24/1/1
f 26/1/1 22/1/1 21/1/1
f 27/3/1 23/3/1 22/3/1
f 27/1/1 22/1/1 26/1/1
f 28/2/1 24/2/1 23/2/1
f 28/3/1 23/3/1 27/3/1
f 29/2/1 24/2/1 28/2/1
f 32/1/1 31/1/1 30/1/1
f 33/1/1 31/1/1 32/1/1
f 35/3/1 33/3/1 32/3/1
f 36/1/1 34/1/1 33/1/1
f 36/3/1 33/3/1 35/3/1
f 37/1/1 34/1/1 36/1/1
f 40/2/1 38/2/1 37/2/1
f 41/1/1 39/1/1 38/1/1
f 41/2/1 38/2/1 40/2/1
f 42/1/1 39/1/1 41/1/1
f 45/2/1 44/2/1 43/2/1
f 46/2/1 44/2/1 45/2/1
f 51/2/1 48/2/1 47/2/1
f 52/2/1 48/2/1 51/2/1
f 53/1/1 50/1/1 49/1/1
f 54/1/1 50/1/1 53/1/1
f 59/2/1 56/2/1 55/2/1
f 60/2/1 56/2/1 59/2/1
f 61/2/1 58/2/1 57/2/1
f 62/2/1 58/2/1 61/2/1
f 63/3/2 64/3/2 65/3/2
f 65/3/2 64/3/2 66/3/2
f 67/1/2 68/1/2 69/1/2
f 69/1/2 68/1/2 70/1/2
f 71/1/2 72/1/2 73/1/2
f 73/1/2 72/1/2 74/1/2
f 75/1/2 76/1/2 77/1/2
f 77/1/2 76/1/2 78/1/2
f 79/1/2 80/1/2 82/1/2
f 80/3/2 81/3/2 83/3/2
f 82/1/2 80/1/2 83/1/2
f 83/3/2 81/3/2 84/3/2
f 85/2/2 86/2/2 92/2/2
f 92/2/2 86/2/2 93/2/2
f 87/3/2 88/3/2 94/3/2
f 88/1/2 89/1/2 95/1/2
f 94/3/2 88/3/2 95/3/2
f 95/1/2 89/1/2 96/1/2
f 90/1/2 91/1/2 97/1/2
f 97/1/2 91/1/2 98/1/2
f 93/1/2 94/1/2 99/1/2
f 94/1/2 95/1/2 99/1/2
f 99/1/2 95/1/2 100/1/2
f 95/2/2 96/2/2 101/2/2
f 100/1/2 95/1/2 101/1/2
f 96/3/2 97/3/2 102/3/2
f 101/2/2 96/2/2 102/2/2
f 102/3/2 97/3/2 103/3/2
f 99/2/2 100/2/2 104/2/2
f 104/2/2 100/2/2 105/2/2
f 102/1/2 103/1/2 106/1/2
f 106/1/2 103/1/2 107/1/2
f 108/3/2 109/3/2 112/3/2
f 112/3/2 109/3/2 113/3/2
f 110/1/2 111/1/2 114/1/2
f 114/1/2 111/1/2 115/1/2
f 116/2/2 117/2/2 120/2/2
f 120/2/2 117/2/2 121/2/2
f 118/2/2 119/2/2 122/2/2
f 122/2/2 119/2/2 123/2/2
f 126/2/3 125/2/3 124/2/3
f 127/2/3 125/2/3 126/2/3
f 130/1/3 129/1/3 128/1/3
f 131/1/3 129/1/3 130/1/3
f 135/1/3 133/1/3 132/1/3
f 136/3/3 134/3/3 133/3/3
f 136/1/3 133/1/3 135/1/3
f 137/3/3 134/3/3 136/3/3
f 139/1/3 137/1/3 136/1/3
f 140/1/3 137/1/3 139/1/3
f 141/2/3 139/2/3 138/2/3
f 142/2/3 139/2/3 141/2/3
f 145/1/3 144/1/3 143/1/3
f 146/1/3 144/1/3 145/1/3
f 147/3/3 146/3/3 145/3/3
f 148/3/3 146/3/3 147/3/3
f 151/3/3 150/3/3 149/3/3
f 152/3/3 150/3/3 151/3/3
f 156/1/3 153/1/3 152/1/3
f 157/2/3 154/2/3 153/2/3
f 157/1/3 153/1/3 156/1/3
f 158/2/3 154/2/3 157/2/3
f 159/3/3 156/3/3 155/3/3
f 160/3/3 156/3/3 159/3/3
f 163/3/3 162/3/3 161/3/3
f 164/3/3 162/3/3 163/3/3
f 167/1/3 166/1/3 165/1/3
f 168/1/3 166/1/3 167/1/3
f 170/2/3 169/2/3 168/2/3
f 171/2/3 169/2/3 170/2/3
f 172/1/3 171/1/3 170/1/3
f 173/1/3 171/1/3 172/1/3
f 176/2/3 175/2/3 174/2/3
f 177/2/3 175/2/3 176/2/3
f 182/1/3 179/1/3 178/1/3
f 183/1/3 179/1/3 182/1/3
f 184/1/3 181/1/3 180/1/3
f 185/1/3 181/1/3 184/1/3
f 188/2/3 187/2/3 186/2/3
f 189/2/3 187/2/3 188/2/3
f 190/2/4 191/2/4 192/2/4
f 192/2/4 191/2/4 193/2/4
f 194/1/4 195/1/4 196/1/4
f 196/1/4 195/1/4 197/1/4
f 198/2/4 199/2/4 202/2/4
f 202/2/4 199/2/4 203/2/4
f 200/3/4 201/3/4 204/3/4
f 204/3/4 201/3/4 205/3/4
f 206/3/4 207/3/4 208/3/4
f 208/3/4 207/3/4 209/3/4
f 210/1/4 211/1/4 212/1/4
f 212/1/4 211/1/4 213/1/4
f 214/1/4 215/1/4 216/1/4
f 216/1/4 215/1/4 217/1/4
f 216/3/4 217/3/4 218/3/4
f 218/3/4 217/3/4 219/3/4
f 220/2/4 221/2/4 222/2/4
f 222/2/4 221/2/4 223/2/4
f 223/2/4 224/2/4 225/2/4
f 225/2/4 224/2/4 226/2/4
f 226/2/4 224/2/4 227/2/4
f 227/2/4 224/2/4 228/2/4
f 227/3/4 228/3/4 231/3/4
f 228/1/4 229/1/4 232/1/4
f 231/3/4 228/3/4 232/3/4
f 232/1/4 229/1/4 233/1/4
f 230/1/4 231/1/4 234/1/4
f 234/1/4 231/1/4 235/1/4
f 236/1/4 237/1/4 238/1/4
f 238/1/4 237/1/4 239/1/4
f 238/3/4 239/3/4 240/3/4
f 240/3/4 239/3/4 241/3/4
f 240/2/4 241/2/4 242/2/4
f 242/2/4 241/2/4 243/2/4
f 242/1/4 243/1/4 244/1/4
f 244/1/4 243/1/4 245/1/4
f 246/2/4 247/2/4 248/2/4
f 248/2/4 247/2/4 249/2/4
f 254/2/5 251/2/5 250/2/5
f 255/2/5 251/2/5 254/2/5
f 256/1/5 253/1/5 252/1/5
f 257/1/5 253/1/5 256/1/5
f 264/1/5 259/1/5 258/1/5
f 265/1/5 259/1/5 264/1/5
f 266/2/5 261/2/5 260/2/5
f 267/2/5 261/2/5 266/2/5
f 271/1/5 263/1/5 262/1/5
f 271/3/5 264/3/5 263/3/5
f 272/1/5 265/1/5 264/1/5
f 272/3/5 264/3/5 271/3/5
f 273/3/5 266/3/5 265/3/5
f 273/1/5 265/1/5 272/1/5
f 274/1/5 267/1/5 266/1/5
f 274/3/5 266/3/5 273/3/5
f 275/3/5 268/3/5 267/3/5
f 275/1/5 267/1/5 274/1/5
f 276/3/5 268/3/5 275/3/5
f 277/3/5 270/3/5 269/3/5
f 278/3/5 270/3/5 277/3/5
f 279/1/5 271/1/5 262/1/5
f 279/1/5 274/1/5 273/1/5
f 279/1/5 272/1/5 271/1/5
f 279/1/5 273/1/5 272/1/5
f 280/1/5 274/1/5 279/1/5
f 281/3/5 275/3/5 274/3/5
f 281/1/5 274/1/5 280/1/5
f 282/3/5 275/3/5 281/3/5
f 284/1/5 282/1/5 281/1/5
f 284/1/5 281/1/5 280/1/5
f 285/1/5 282/1/5 284/1/5
f 287/2/5 284/2/5 283/2/5
f 288/1/5 285/1/5 284/1/5
f 288/2/5 284/2/5 287/2/5
f 288/1/5 286/1/5 285/1/5
f 289/1/5 286/1/5 288/1/5
f 290/1/5 286/1/5 289/1/5
f 291/1/5 286/1/5 290/1/5
f 292/1/5 286/1/5 291/1/5
f 293/1/5 286/1/5 292/1/5
f 294/1/5 289/1/5 288/1/5
f 295/3/5 290/3/5 289/3/5
f 295/1/5 289/1/5 294/1/5
f 296/2/5 291/2/5 290/2/5
f 296/3/5 290/3/5 295/3/5
f 297/1/5 292/1/5 291/1/5
f 297/2/5 291/2/5 296/2/5
f 298/1/5 292/1/5 297/1/5
f 301/2/5 300/2/5 299/2/5
f 302/2/5 300/2/5 301/2/5
f 305/1/5 304/1/5 303/1/5
f 306/1/5 304/1/5 305/1/5
f 307/2/6 308/2/6 311/2/6
f 311/2/6 308/2/6 312/2/6
f 309/1/6 310/1/6 313/1/6
f 313/1/6 310/1/6 314/1/6
f 315/2/6 316/2/6 320/2/6
f 320/2/6 316/2/6 321/2/6
f 318/3/6 319/3/6 325/3/6
f 317/1/6 318/1/6 325/1/6
f 325/3/6 319/3/6 326/3/6
f 321/3/6 322/3/6 327/3/6
f 327/3/6 322/3/6 328/3/6
f 323/3/6 324/3/6 329/3/6
f 329/3/6 324/3/6 330/3/6
f 317/1/6 325/1/6 331/1/6
f 331/1/6 325/1/6 332/1/6
f 333/2/6 334/2/6 337/2/6
f 337/2/6 334/2/6 338/2/6
f 335/1/6 336/1/6 342/1/6
f 342/1/6 336/1/6 343/1/6
f 338/1/6 339/1/6 344/1/6
f 339/3/6 340/3/6 345/3/6
f 344/1/6 339/1/6 345/1/6
f 340/2/6 341/2/6 346/2/6
f 345/3/6 340/3/6 346/3/6
f 341/1/6 342/1/6 347/1/6
f 346/2/6 341/2/6 347/2/6
f 347/1/6 342/1/6 348/1/6
f 349/2/6 350/2/6 351/2/6
f 351/2/6 350/2/6 352/2/6
f 353/3/6 354/3/6 356/3/6
f 354/1/6 355/1/6 357/1/6
f 356/3/6 354/3/6 357/3/6
f 357/1/6 355/1/6 358/1/6
f 356/1/6 357/1/6 360/1/6
f 357/2/6 358/2/6 361/2/6
f 360/1/6 357/1/6 361/1/6
f 361/2/6 358/2/6 362/2/6
f 359/1/6 360/1/6 364/1/6
f 364/1/6 360/1/6 365/1/6
f 362/1/6 363/1/6 366/1/6
f 366/1/6 363/1/6 367/1/6
f 364/3/6 365/3/6 368/3/6
f 368/3/6 365/3/6 369/3/6
f 366/2/6 367/2/6 371/2/6
f 371/2/6 367/2/6 372/2/6
f 369/2/6 370/2/6 373/2/6
f 368/2/6 369/2/6 373/2/6
f 370/2/6 371/2/6 373/2/6
f 373/2/6 371/2/6 374/2/6
f 375/2/6 376/2/6 379/2/6
f 379/2/6 376/2/6 380/2/6
f 377/2/6 378/2/6 381/2/6
f 378/1/6 379/1/6 382/1/6
f 381/2/6 378/2/6 382/2/6
f 382/1/6 379/1/6 383/1/6
f 381/1/6 382/1/6 384/1/6
f 382/3/6 383/3/6 385/3/6
f 384/1/6 382/1/6 385/1/6
f 385/3/6 383/3/6 386/3/6
f 386/1/6 387/1/6 388/1/6
f 388/1/6 387/1/6 389/1/6
